<?xml version="1.0" encoding="UTF-8" standalone="no"?>
<!-- Created with Inkscape (http://www.inkscape.org/) -->

<svg
   id="svg13145"
   sodipodi:docname="3birds.svg"
   viewBox="0 0 744.09 700.40001"
   version="1.1"
   inkscape:version="0.47 r22583"
   width="744.09003"
   height="700.40002"
   xmlns:inkscape="http://www.inkscape.org/namespaces/inkscape"
   xmlns:sodipodi="http://sodipodi.sourceforge.net/DTD/sodipodi-0.dtd"
   xmlns="http://www.w3.org/2000/svg"
   xmlns:svg="http://www.w3.org/2000/svg"
   xmlns:rdf="http://www.w3.org/1999/02/22-rdf-syntax-ns#"
   xmlns:cc="http://creativecommons.org/ns#"
   xmlns:dc="http://purl.org/dc/elements/1.1/">
  <defs
     id="defs13147" />
  <sodipodi:namedview
     id="base"
     bordercolor="#666666"
     inkscape:pageshadow="2"
     inkscape:window-y="69"
     pagecolor="#ffffff"
     inkscape:window-height="450"
     inkscape:window-maximized="0"
     inkscape:zoom="0.35"
     inkscape:window-x="69"
     showgrid="false"
     borderopacity="1.0"
     inkscape:current-layer="layer1"
     inkscape:cx="375"
     inkscape:cy="520"
     inkscape:window-width="550"
     inkscape:pageopacity="0.0"
     inkscape:document-units="px"
     inkscape:showpageshadow="2"
     inkscape:pagecheckerboard="0"
     inkscape:deskcolor="#d1d1d1" />
  <g
     id="layer1"
     inkscape:label="Layer 1"
     inkscape:groupmode="layer">
    <g
       id="g29995"
       inkscape:export-ydpi="72"
       inkscape:export-xdpi="72"
       inkscape:export-filename="C:\Users\star\Desktop\siteLUCIANA.png"
       transform="matrix(3.2402,0,0,3.2402,-816.05,51.948571)">
      <g
         id="g20316"
         style="fill:#ffcc00"
         inkscape:export-ydpi="72"
         inkscape:export-filename="C:\Users\star\Desktop\siteLUCIANA.png"
         transform="matrix(1.25,0,0,-1.25,354.89,76.859)"
         inkscape:export-xdpi="72">
        <path
           id="path20318"
           style="fill:#ffcc00"
           d="M 0,0 C 0,0 5.903,-1.043 8.001,-2.926 L 0.248,-3.297 -1.075,-0.973 Z" />
      </g>
      <g
         id="g29954">
        <g
           id="g20168"
           style="fill:#5fbcd3"
           inkscape:export-ydpi="72"
           inkscape:export-filename="C:\Users\star\Desktop\siteLUCIANA.png"
           transform="matrix(1.25,0,0,-1.25,191.72,664.58)"
           inkscape:export-xdpi="72">
          <g
             id="g20170"
             style="fill:#5fbcd3">
            <g
               id="g20176"
               style="fill:#5fbcd3">
              <g
                 id="g20178"
                 style="fill:#5fbcd3">
                <path
                   id="path20186"
                   style="fill:#5fbcd3"
                   d="m 63.94,435.87 c 0,0 1.774,-3.374 6.628,-0.671 4.856,2.705 13.616,10.146 13.616,10.146 l -1.033,1.283 c 0,0 -15.938,-9.618 -19.211,-10.758" />
              </g>
            </g>
          </g>
        </g>
        <g
           id="g20188"
           style="fill:#2c89a0"
           inkscape:export-ydpi="72"
           inkscape:export-filename="C:\Users\star\Desktop\siteLUCIANA.png"
           transform="matrix(1.25,0,0,-1.25,191.72,664.58)"
           inkscape:export-xdpi="72">
          <g
             id="g20190"
             style="fill:#2c89a0">
            <g
               id="g20196"
               style="fill:#2c89a0">
              <g
                 id="g20198"
                 style="fill:#2c89a0">
                <path
                   id="path20206"
                   style="fill:#2c89a0"
                   d="m 66.511,433.26 c 0,0 2.747,-3.113 7.26,0.129 4.516,3.241 11.77,11.598 11.77,11.598 l -1.173,1.157 c 0,0 -14.735,-11.377 -17.857,-12.884" />
              </g>
            </g>
          </g>
        </g>
        <g
           id="g20208"
           style="fill:#006680"
           inkscape:export-ydpi="72"
           inkscape:export-filename="C:\Users\star\Desktop\siteLUCIANA.png"
           transform="matrix(1.25,0,0,-1.25,191.72,664.58)"
           inkscape:export-xdpi="72">
          <g
             id="g20210"
             style="fill:#006680">
            <g
               id="g20216"
               style="fill:#006680">
              <g
                 id="g20218"
                 style="fill:#006680">
                <path
                   id="path20226"
                   style="fill:#006680"
                   d="m 69.326,430.38 c 0,0 2.679,-2.621 6.807,1.101 4.127,3.722 10.804,12.666 10.804,12.666 l -1.293,1.019 c 0,0 -13.383,-12.943 -16.318,-14.786" />
              </g>
            </g>
          </g>
        </g>
        <g
           id="g20228"
           style="fill:#008080"
           inkscape:export-ydpi="72"
           inkscape:export-filename="C:\Users\star\Desktop\siteLUCIANA.png"
           transform="matrix(1.25,0,0,-1.25,191.72,664.58)"
           inkscape:export-xdpi="72">
          <g
             id="g20230"
             style="fill:#008080">
            <g
               id="g20236"
               style="fill:#008080">
              <g
                 id="g20238"
                 style="fill:#008080">
                <path
                   id="path20246"
                   style="fill:#008080"
                   d="m 73.44,428.84 c 0,0 3.324,-2.421 6.944,1.794 3.622,4.216 8.775,14.099 8.775,14.099 l -1.413,0.847 c 0,0 -11.629,-14.538 -14.306,-16.74" />
              </g>
            </g>
          </g>
        </g>
        <g
           id="g20248"
           style="fill:#008080"
           inkscape:export-ydpi="72"
           inkscape:export-filename="C:\Users\star\Desktop\siteLUCIANA.png"
           transform="matrix(1.25,0,0,-1.25,191.72,664.58)"
           inkscape:export-xdpi="72">
          <g
             id="g20250"
             style="fill:#008080">
            <g
               id="g20256"
               style="fill:#008080">
              <g
                 id="g20258"
                 style="fill:#008080">
                <path
                   id="path20266"
                   style="fill:#008080"
                   d="m 87.264,488.55 c 0.546,-0.467 -2.391,1.108 -3.162,1.765 0,0 -2.228,-4.162 2.556,-6.992 0.589,-0.349 -1.939,0.713 -2.706,1.208 0,0 -1.273,-3.386 1.845,-5.692 -0.113,-0.324 -1.189,-3.732 2.226,-5.921 -0.205,-1.233 -0.179,-3.714 2.69,-5.373 0.163,-1.421 0.971,-3.201 3.674,-4.354 0.278,-0.116 0.573,-0.232 0.884,-0.345 6.057,-6.415 12.009,-7.629 15.69,-4.874 4.253,3.185 7.317,9.487 -2.048,18.117 -7.983,7.358 -17.244,14.664 -18.574,15.706 -2.052,1.783 -3.727,3.312 -4.362,4.088 0,0 -2.925,-3.704 1.287,-7.333" />
              </g>
            </g>
          </g>
        </g>
        <g
           id="g20268"
           style="fill:#00ccff"
           inkscape:export-ydpi="72"
           inkscape:export-filename="C:\Users\star\Desktop\siteLUCIANA.png"
           transform="matrix(1.25,0,0,-1.25,191.72,664.58)"
           inkscape:export-xdpi="72">
          <g
             id="g20270"
             style="fill:#00ccff">
            <g
               id="g20276"
               style="fill:#00ccff">
              <g
                 id="g20278"
                 style="fill:#00ccff">
                <path
                   id="path20286"
                   style="fill:#00ccff"
                   d="m 106.07,465.68 c -9.27,-8.96 -24.52,-19.872 -24.52,-19.872 0,0 16.915,-9.637 29.331,-6.165 12.417,3.472 15.451,17.788 20.317,27.677 -0.49,4.863 -2.746,8.891 -7.469,8.892 -3.987,0 -9.732,-2.87 -17.659,-10.532" />
              </g>
            </g>
          </g>
        </g>
        <g
           id="g20288"
           style="fill:#008080"
           inkscape:export-ydpi="72"
           inkscape:export-filename="C:\Users\star\Desktop\siteLUCIANA.png"
           transform="matrix(1.25,0,0,-1.25,191.72,664.58)"
           inkscape:export-xdpi="72">
          <g
             id="g20290"
             style="fill:#008080">
            <g
               id="g20296"
               style="fill:#008080">
              <g
                 id="g20298"
                 style="fill:#008080">
                <path
                   id="path20306"
                   style="fill:#008080"
                   d="m 66.051,471.91 c -3.415,-0.055 -6.262,-0.027 -7.508,0.166 0,0 0.371,-5.919 7.351,-5.78 0.906,0.019 -3.166,-0.971 -4.435,-0.999 0,0 1.405,-5.762 8.251,-4.4 0.845,0.168 -2.41,-0.957 -3.544,-1.137 0,0 1.649,-4.237 6.497,-3.78 0.167,-0.396 2.018,-4.486 7.047,-3.671 0.844,-1.323 2.946,-3.623 7.022,-2.767 1.342,-1.194 3.589,-2.182 7.086,-0.991 0.357,0.121 0.731,0.262 1.115,0.416 11.042,-0.923 17.629,2.933 18.761,8.596 1.31,6.543 -1.108,15.005 -17.103,15.228 -1.245,0.017 -2.499,0.025 -3.752,0.025 -12.479,0 -24.864,-0.78 -26.788,-0.906" />
              </g>
            </g>
          </g>
        </g>
        <g
           id="g20320"
           style="fill:#ffcc00"
           inkscape:export-ydpi="72"
           inkscape:export-filename="C:\Users\star\Desktop\siteLUCIANA.png"
           transform="matrix(1.25,0,0,-1.25,346.39,76.378)"
           inkscape:export-xdpi="72">
          <path
             id="path20322"
             style="fill:#ffcc00"
             d="M 0,0 C 0.194,-0.691 0.908,-1.093 1.6,-0.9 2.288,-0.707 2.692,0.007 2.498,0.698 2.305,1.388 1.59,1.791 0.9,1.598 0.21,1.405 -0.191,0.689 0,0" />
        </g>
        <g
           id="g20324"
           style="fill:#241f1c"
           inkscape:export-ydpi="72"
           inkscape:export-filename="C:\Users\star\Desktop\siteLUCIANA.png"
           transform="matrix(1.25,0,0,-1.25,347.5,76.112)"
           inkscape:export-xdpi="72">
          <path
             id="path20326"
             style="fill:#241f1c"
             d="M 0,0 C 0.09,-0.323 0.423,-0.513 0.746,-0.422 1.069,-0.332 1.259,0.003 1.168,0.326 1.077,0.649 0.742,0.839 0.419,0.748 0.097,0.658 -0.091,0.324 0,0" />
        </g>
      </g>
    </g>
    <g
       id="g30039"
       inkscape:export-ydpi="72"
       inkscape:export-xdpi="72"
       inkscape:export-filename="2birds.svg"
       transform="matrix(3.0306,0,0,3.0306,-1161.9,92.198571)">
      <g
         id="g20028"
         style="fill:#225500"
         inkscape:export-ydpi="72"
         inkscape:export-filename="C:\Users\star\Desktop\siteLUCIANA.png"
         transform="matrix(1.25,0,0,-1.25,53.032,677.43)"
         inkscape:export-xdpi="72">
        <g
           id="g20030"
           style="fill:#225500">
          <g
             id="g20036"
             style="fill:#225500">
            <g
               id="g20038"
               style="fill:#225500">
              <path
                 id="path20046"
                 style="fill:#225500"
                 d="m 419.54,445.98 c 0,0 7.254,-8.357 11.769,-11.599 4.514,-3.243 7.261,-0.13 7.261,-0.13 -3.122,1.508 -17.857,12.885 -17.857,12.885 z" />
            </g>
          </g>
        </g>
      </g>
      <g
         id="g29904"
         transform="translate(-74.438,-19.496)">
        <g
           id="g20008"
           style="fill:#112b00"
           inkscape:export-ydpi="72"
           inkscape:export-filename="C:\Users\star\Desktop\siteLUCIANA.png"
           transform="matrix(1.25,0,0,-1.25,126.58,695.6)"
           inkscape:export-xdpi="72">
          <g
             id="g20010"
             style="fill:#112b00">
            <g
               id="g20016"
               style="fill:#112b00">
              <g
                 id="g20018"
                 style="fill:#112b00">
                <path
                   id="path20026"
                   style="fill:#112b00"
                   d="m 420.9,446.35 c 0,0 8.761,-7.44 13.616,-10.146 4.855,-2.703 6.63,0.671 6.63,0.671 -3.274,1.14 -19.213,10.758 -19.213,10.758 z" />
              </g>
            </g>
          </g>
        </g>
        <g
           id="g20048"
           style="fill:#44aa00"
           inkscape:export-ydpi="72"
           inkscape:export-filename="C:\Users\star\Desktop\siteLUCIANA.png"
           transform="matrix(1.25,0,0,-1.25,126.58,695.6)"
           inkscape:export-xdpi="72">
          <g
             id="g20050"
             style="fill:#44aa00">
            <g
               id="g20056"
               style="fill:#44aa00">
              <g
                 id="g20058"
                 style="fill:#44aa00">
                <path
                   id="path20066"
                   style="fill:#44aa00"
                   d="m 418.15,445.15 c 0,0 6.678,-8.944 10.805,-12.666 4.128,-3.722 6.807,-1.101 6.807,-1.101 -2.935,1.843 -16.318,14.786 -16.318,14.786 z" />
              </g>
            </g>
          </g>
        </g>
        <g
           id="g20068"
           style="fill:#66ff00"
           inkscape:export-ydpi="72"
           inkscape:export-filename="C:\Users\star\Desktop\siteLUCIANA.png"
           transform="matrix(1.25,0,0,-1.25,126.58,695.6)"
           inkscape:export-xdpi="72">
          <g
             id="g20070"
             style="fill:#66ff00">
            <g
               id="g20076"
               style="fill:#66ff00">
              <g
                 id="g20078"
                 style="fill:#66ff00">
                <path
                   id="path20086"
                   style="fill:#66ff00"
                   d="m 415.93,445.73 c 0,0 5.153,-9.882 8.774,-14.099 3.622,-4.216 6.944,-1.793 6.944,-1.793 -2.675,2.201 -14.305,16.739 -14.305,16.739 z" />
              </g>
            </g>
          </g>
        </g>
        <g
           id="g20088"
           style="fill:#338000"
           inkscape:export-ydpi="72"
           inkscape:export-filename="C:\Users\star\Desktop\siteLUCIANA.png"
           transform="matrix(1.25,0,0,-1.25,126.58,695.6)"
           inkscape:export-xdpi="72">
          <g
             id="g20090"
             style="fill:#338000">
            <g
               id="g20096"
               style="fill:#338000">
              <g
                 id="g20098"
                 style="fill:#338000">
                <path
                   id="path20106"
                   style="fill:#338000"
                   d="m 414.75,492.79 c -1.331,-1.042 -10.591,-8.347 -18.574,-15.706 -9.366,-8.63 -6.301,-14.932 -2.048,-18.117 3.68,-2.755 9.633,-1.541 15.689,4.874 0.312,0.113 0.607,0.229 0.884,0.346 2.704,1.153 3.512,2.932 3.675,4.353 2.869,1.658 2.895,4.14 2.691,5.373 3.413,2.189 2.339,5.597 2.225,5.921 3.117,2.306 1.844,5.693 1.844,5.693 -0.766,-0.497 -3.294,-1.558 -2.705,-1.209 4.783,2.83 2.555,6.992 2.555,6.992 -0.77,-0.657 -3.708,-2.232 -3.161,-1.764 4.212,3.628 1.287,7.332 1.287,7.332 -0.635,-0.776 -2.31,-2.305 -4.362,-4.088" />
              </g>
            </g>
          </g>
        </g>
        <g
           id="g20108"
           style="fill:#8dd35f"
           inkscape:export-ydpi="72"
           inkscape:export-filename="C:\Users\star\Desktop\siteLUCIANA.png"
           transform="matrix(1.25,0,0,-1.25,126.58,695.6)"
           inkscape:export-xdpi="72">
          <g
             id="g20110"
             style="fill:#8dd35f">
            <g
               id="g20116"
               style="fill:#8dd35f">
              <g
                 id="g20118"
                 style="fill:#8dd35f">
                <path
                   id="path20126"
                   style="fill:#8dd35f"
                   d="m 373.88,468.32 c 4.866,-9.89 7.9,-24.205 20.317,-27.677 12.416,-3.472 29.331,6.165 29.331,6.165 0,0 -15.25,10.911 -24.521,19.872 -7.926,7.662 -13.671,10.532 -17.658,10.532 -4.723,-10e-4 -6.979,-4.029 -7.469,-8.892" />
              </g>
            </g>
          </g>
        </g>
        <g
           id="g20128"
           style="fill:#338000"
           inkscape:export-ydpi="72"
           inkscape:export-filename="C:\Users\star\Desktop\siteLUCIANA.png"
           transform="matrix(1.25,0,0,-1.25,126.58,695.6)"
           inkscape:export-xdpi="72">
          <g
             id="g20130"
             style="fill:#338000">
            <g
               id="g20136"
               style="fill:#338000">
              <g
                 id="g20138"
                 style="fill:#338000">
                <path
                   id="path20146"
                   style="fill:#338000"
                   d="m 408.5,473.79 c -15.995,-0.223 -18.413,-8.685 -17.103,-15.228 1.131,-5.663 7.719,-9.519 18.761,-8.596 0.384,-0.154 0.758,-0.295 1.115,-0.416 3.497,-1.191 5.743,-0.203 7.085,0.991 4.076,-0.856 6.179,1.443 7.023,2.767 5.029,-0.815 6.88,3.274 7.047,3.672 4.847,-0.458 6.497,3.779 6.497,3.779 -1.134,0.179 -4.389,1.305 -3.544,1.137 6.845,-1.362 8.251,4.4 8.251,4.4 -1.27,0.028 -5.341,1.018 -4.434,0.999 6.979,-0.138 7.35,5.78 7.35,5.78 -1.246,-0.193 -4.094,-0.221 -7.508,-0.166 -1.925,0.126 -14.311,0.906 -26.789,0.906 -1.254,0 -2.506,-0.008 -3.751,-0.025" />
              </g>
            </g>
          </g>
        </g>
        <g
           id="g20156"
           style="fill:#ff6600"
           inkscape:export-ydpi="72"
           inkscape:export-filename="C:\Users\star\Desktop\siteLUCIANA.png"
           transform="matrix(1.25,0,0,-1.25,594.76,106.63)"
           inkscape:export-xdpi="72">
          <path
             id="path20158"
             style="fill:#ff6600"
             d="m 0,0 c 0,0 -5.903,-1.043 -8.001,-2.926 l 7.753,-0.371 1.323,2.324 z" />
        </g>
        <g
           id="g20160"
           style="fill:#803300"
           inkscape:export-ydpi="72"
           inkscape:export-filename="C:\Users\star\Desktop\siteLUCIANA.png"
           transform="matrix(1.25,0,0,-1.25,603.27,106.14)"
           inkscape:export-xdpi="72">
          <path
             id="path20162"
             style="fill:#803300"
             d="m 0,0 c -0.194,-0.691 -0.908,-1.093 -1.6,-0.9 -0.688,0.193 -1.092,0.907 -0.898,1.598 0.193,0.69 0.908,1.093 1.598,0.9 C -0.21,1.405 0.191,0.689 0,0" />
        </g>
        <g
           id="g20164"
           style="fill:#000000"
           inkscape:export-ydpi="72"
           inkscape:export-filename="C:\Users\star\Desktop\siteLUCIANA.png"
           transform="matrix(1.25,0,0,-1.25,602.16,105.88)"
           inkscape:export-xdpi="72">
          <path
             id="path20166"
             style="fill:#000000"
             d="m 0,0 c -0.09,-0.323 -0.423,-0.513 -0.746,-0.422 -0.323,0.09 -0.513,0.425 -0.422,0.748 0.091,0.323 0.426,0.513 0.749,0.422 C -0.097,0.658 0.091,0.324 0,0" />
        </g>
      </g>
    </g>
  </g>
  <metadata
     id="metadata124">
    <rdf:RDF>
      <cc:Work>
        <dc:format>image/svg+xml</dc:format>
        <dc:type
           rdf:resource="http://purl.org/dc/dcmitype/StillImage" />
        <cc:license
           rdf:resource="http://creativecommons.org/publicdomain/zero/1.0/" />
        <dc:publisher>
          <cc:Agent
             rdf:about="http://openclipart.org/">
            <dc:title>Openclipart</dc:title>
          </cc:Agent>
        </dc:publisher>
        <dc:title>Passarinhos Birds</dc:title>
        <dc:date>2010-05-12T16:51:53</dc:date>
        <dc:description />
        <dc:source>https://openclipart.org/detail/60025/passarinhos-birds-by-glauciarezende</dc:source>
        <dc:creator>
          <cc:Agent>
            <dc:title>glauciarezende</dc:title>
          </cc:Agent>
        </dc:creator>
        <dc:subject>
          <rdf:Bag>
            <rdf:li>Passarinho</rdf:li>
            <rdf:li>ave</rdf:li>
            <rdf:li>aves</rdf:li>
            <rdf:li>bird</rdf:li>
            <rdf:li>birds</rdf:li>
            <rdf:li>pássaro</rdf:li>
            <rdf:li>twitter</rdf:li>
          </rdf:Bag>
        </dc:subject>
      </cc:Work>
      <cc:License
         rdf:about="http://creativecommons.org/publicdomain/zero/1.0/">
        <cc:permits
           rdf:resource="http://creativecommons.org/ns#Reproduction" />
        <cc:permits
           rdf:resource="http://creativecommons.org/ns#Distribution" />
        <cc:permits
           rdf:resource="http://creativecommons.org/ns#DerivativeWorks" />
      </cc:License>
    </rdf:RDF>
  </metadata>
</svg>
