<?xml version="1.0" encoding="UTF-8" standalone="no"?>
<!-- Generator: Adobe Illustrator 15.1.0, SVG Export Plug-In . SVG Version: 6.00 Build 0)  -->

<svg
   version="1.1"
   id="zulu-shirts.de"
   x="0px"
   y="0px"
   width="263.24734"
   height="258.12402"
   viewBox="0 0 263.24734 258.12402"
   enable-background="new 0 0 779 456"
   xml:space="preserve"
   sodipodi:docname="monkey-emojis.svg"
   xmlns:inkscape="http://www.inkscape.org/namespaces/inkscape"
   xmlns:sodipodi="http://sodipodi.sourceforge.net/DTD/sodipodi-0.dtd"
   xmlns="http://www.w3.org/2000/svg"
   xmlns:svg="http://www.w3.org/2000/svg"><defs
   id="defs1327" /><sodipodi:namedview
   id="namedview1325"
   pagecolor="#ffffff"
   bordercolor="#000000"
   borderopacity="0.25"
   inkscape:showpageshadow="2"
   inkscape:pageopacity="0.0"
   inkscape:pagecheckerboard="0"
   inkscape:deskcolor="#d1d1d1"
   showgrid="false" />















<g
   id="g1471"
   transform="translate(58.445186,151.44901)"><path
     fill="#d8b78b"
     d="m 98.421,70.581 c 0.191,1.381 0.465,6.064 2.051,6.827 5.137,2.47 6.938,-9.131 7.509,-11.925 0.567,-2.78 -0.22,-9.322 -4.438,-7.75 -0.139,0.052 -0.238,0.115 -0.31,0.187 -1.841,-0.794 -3.954,-0.59 -4.626,1.66 -0.996,3.336 -0.656,7.626 -0.186,11.001 z"
     id="path198" /><path
     d="m 107.064,58.167 c -1.928,-1.751 -4.78,-0.71 -4.901,-0.665 l 0.351,0.937 c 0.023,-0.01 2.411,-0.87 3.883,0.473 0.069,0.063 0.138,0.133 0.206,0.209 0.944,1.068 1.64,3.474 0.361,8.886 -0.09,0.378 -0.189,0.771 -0.299,1.18 v 0 c -0.003,0.013 -0.006,0.023 -0.009,0.036 -0.934,4.881 -2.33,6.679 -3.338,7.327 -0.685,0.44 -1.173,0.33 -1.182,0.327 l -0.279,0.96 c 0.037,0.011 0.197,0.053 0.446,0.053 0.351,0 0.879,-0.083 1.485,-0.454 1.739,-1.065 3.034,-3.766 3.841,-7.989 1.545,-5.743 1.354,-9.537 -0.565,-11.28 z"
     id="path240" /><g
     id="g1444"><path
       fill="#d8b78b"
       d="m 50.499,59.58 c -0.672,-2.25 -2.785,-2.454 -4.626,-1.66 -0.071,-0.071 -0.171,-0.135 -0.309,-0.187 -4.219,-1.572 -5.007,4.97 -4.439,7.75 0.57,2.794 2.372,14.395 7.509,11.925 1.586,-0.763 1.859,-5.446 2.051,-6.827 0.469,-3.375 0.809,-7.665 -0.186,-11.001 z"
       id="path200" /><path
       fill="#7f512e"
       stroke="#000000"
       stroke-miterlimit="10"
       d="m 103.138,64.486 c 0,-15.276 -12.766,-27.66 -28.513,-27.66 -15.746,0 -28.512,11.222 -28.512,27.66 0,30.696 12.766,27.659 28.512,27.659 15.747,0.001 28.513,3.038 28.513,-27.659 z"
       id="path202" /><path
       fill="#d8b78b"
       stroke="#000000"
       stroke-width="1.2015"
       stroke-miterlimit="10"
       d="m 51.143,74.014 c 0,14.198 10.559,25.708 23.583,25.708 13.022,0 23.581,-11.51 23.581,-25.708 0,-14.199 -0.125,-32.15 -23.684,-26.561 -26.684,-5.59 -23.48,12.361 -23.48,26.561 z"
       id="path204" /><ellipse
       fill="#ffffff"
       stroke="#000000"
       stroke-miterlimit="10"
       cx="63.181999"
       cy="66.352997"
       rx="6.671"
       ry="8.5340004"
       id="ellipse206" /><ellipse
       fill="#ffffff"
       stroke="#000000"
       stroke-miterlimit="10"
       cx="86.181999"
       cy="66.352997"
       rx="6.671"
       ry="8.5340004"
       id="ellipse208" /><ellipse
       cx="63.619999"
       cy="69.314003"
       rx="2.6919999"
       ry="4.2069998"
       id="ellipse210" /><ellipse
       cx="85.619003"
       cy="69.314003"
       rx="2.6919999"
       ry="4.2069998"
       id="ellipse212" /><ellipse
       fill="#d8b78b"
       stroke="#000000"
       stroke-miterlimit="10"
       cx="74.625999"
       cy="88.642998"
       rx="29.221001"
       ry="17.532"
       id="ellipse214" /><path
       fill="#ffffff"
       d="m 46.349,88.764 c 2.765,2.166 14.529,10.639 29.359,10.641 0.001,0 0.003,0 0.003,0 9.704,0 18.859,-3.58 27.228,-10.643 -8.363,-3.948 -17.521,-5.949 -27.23,-5.949 -14.722,0 -26.403,4.658 -29.36,5.951 z"
       id="path216" /><path
       fill="none"
       stroke="#000000"
       stroke-linejoin="bevel"
       stroke-miterlimit="10"
       d="m 45.405,88.643 c 0,0 29.221,25.338 58.441,0 -29.22,-14.244 -58.441,0 -58.441,0"
       id="path218" /><g
       id="g236">
	<path
   fill="none"
   stroke="#000000"
   stroke-width="0.9999"
   stroke-miterlimit="10"
   d="m 45.405,88.643 c 0,0 29.218,6.967 58.436,0"
   id="path220" />
	
		<line
   fill="none"
   stroke="#000000"
   stroke-width="0.9999"
   stroke-miterlimit="10"
   x1="51.298"
   y1="86.343002"
   x2="51.298"
   y2="93.051003"
   id="line222" />
	
		<line
   fill="none"
   stroke="#000000"
   stroke-width="0.9999"
   stroke-miterlimit="10"
   x1="59.073002"
   y1="84.417999"
   x2="59.073002"
   y2="96.107002"
   id="line224" />
	<line
   fill="none"
   stroke="#000000"
   stroke-width="0.9999"
   stroke-miterlimit="10"
   x1="66.309998"
   y1="83.055"
   x2="66.309998"
   y2="98.518997"
   id="line226" />
	
		<line
   fill="none"
   stroke="#000000"
   stroke-width="0.9999"
   stroke-miterlimit="10"
   x1="98.306999"
   y1="86.343002"
   x2="98.306999"
   y2="93.051003"
   id="line228" />
	<line
   fill="none"
   stroke="#000000"
   stroke-width="1.0589"
   stroke-miterlimit="10"
   x1="90.529999"
   y1="83.950996"
   x2="90.529999"
   y2="97.059998"
   id="line230" />
	
		<line
   fill="none"
   stroke="#000000"
   stroke-width="1.0216"
   stroke-miterlimit="10"
   x1="83.293999"
   y1="83.055"
   x2="83.293999"
   y2="99.195"
   id="line232" />
	
		<line
   fill="none"
   stroke="#000000"
   stroke-width="0.9999"
   stroke-miterlimit="10"
   x1="74.623001"
   y1="82.321999"
   x2="74.623001"
   y2="99.903999"
   id="line234" />
</g><path
       d="m 47.025,76.876 c -0.004,10e-4 -0.471,0.108 -1.129,-0.295 -1.024,-0.627 -2.444,-2.412 -3.399,-7.396 -0.56,-2.081 -0.852,-3.766 -0.954,-5.129 -0.021,-0.273 -0.034,-0.533 -0.04,-0.78 -0.062,-2.478 0.569,-3.732 1.263,-4.365 1.104,-1.008 2.723,-0.776 3.473,-0.592 0.25,0.061 0.404,0.117 0.41,0.119 L 47,57.501 c -0.121,-0.045 -2.973,-1.087 -4.901,0.665 -1.682,1.527 -2.035,4.63 -1.064,9.212 0.138,0.652 0.303,1.334 0.493,2.046 0.815,4.251 2.11,6.946 3.848,8.01 0.606,0.371 1.134,0.454 1.484,0.454 0.249,0 0.41,-0.042 0.446,-0.053 z"
       id="path238" /><path
       d="m 93.43,57.751 c -0.026,0.563 -0.535,-0.449 -0.884,-0.771 -0.592,-0.546 -1.415,-0.988 -2.243,-1.382 -2.09,-0.992 -4.618,-1.367 -6.983,-1.417 -0.488,-0.01 -0.592,-3.056 0.484,-3.033 5.229,0.108 10.971,2.332 10.802,5.964 -0.023,0.512 -0.047,1.464 -0.678,1.805 -0.472,0.257 -0.502,-1.102 -0.498,-1.166 z"
       id="path242" /><path
       d="m 56.146,57.751 c 0.026,0.563 0.534,-0.449 0.884,-0.771 0.592,-0.546 1.414,-0.988 2.243,-1.382 2.09,-0.992 4.617,-1.367 6.983,-1.417 0.487,-0.01 0.591,-3.056 -0.484,-3.033 -5.229,0.108 -10.972,2.332 -10.803,5.964 0.024,0.512 0.048,1.464 0.678,1.805 0.473,0.257 0.502,-1.102 0.499,-1.166 z"
       id="path244" /></g></g>






























































<g
   id="g1487"
   transform="translate(-316.81863,-120.25841)"><path
     fill="#d8b78b"
     d="m 569.82654,341.2631 c 0.191,1.381 0.465,6.064 2.051,6.827 5.137,2.47 6.938,-9.131 7.508,-11.925 0.568,-2.78 -0.219,-9.322 -4.438,-7.75 -0.139,0.052 -0.238,0.115 -0.311,0.187 -1.84,-0.794 -3.953,-0.59 -4.625,1.66 -0.996,3.336 -0.656,7.626 -0.185,11.001 z"
     id="path360" /><path
     fill="#d8b78b"
     d="m 521.90354,330.2621 c -0.672,-2.25 -2.785,-2.454 -4.626,-1.66 -0.071,-0.071 -0.171,-0.135 -0.309,-0.187 -4.219,-1.572 -5.007,4.97 -4.439,7.75 0.57,2.794 2.372,14.395 7.509,11.925 1.586,-0.763 1.859,-5.446 2.051,-6.827 0.469,-3.375 0.809,-7.665 -0.186,-11.001 z"
     id="path362" /><path
     fill="#7f512e"
     stroke="#000000"
     stroke-miterlimit="10"
     d="m 574.54354,335.1681 c 0,-15.276 -12.766,-27.66 -28.514,-27.66 -15.746,0 -28.512,11.222 -28.512,27.66 0,30.696 12.766,27.659 28.512,27.659 15.748,0.001 28.514,3.038 28.514,-27.659 z"
     id="path364" /><path
     fill="#d8b78b"
     stroke="#000000"
     stroke-width="1.2015"
     stroke-miterlimit="10"
     d="m 522.54754,344.6961 c 0,14.198 10.559,25.708 23.583,25.708 13.022,0 23.581,-11.51 23.581,-25.708 0,-14.199 -0.125,-32.15 -23.684,-26.561 -26.684,-5.59 -23.48,12.361 -23.48,26.561 z"
     id="path366" /><ellipse
     fill="#ffffff"
     stroke="#000000"
     stroke-miterlimit="10"
     cx="534.58655"
     cy="337.0351"
     rx="6.671"
     ry="8.5340004"
     id="ellipse368" /><ellipse
     fill="#ffffff"
     stroke="#000000"
     stroke-miterlimit="10"
     cx="557.58759"
     cy="337.0351"
     rx="6.671"
     ry="8.5340004"
     id="ellipse370" /><ellipse
     cx="535.02454"
     cy="339.99609"
     rx="2.6919999"
     ry="4.2069998"
     id="ellipse372" /><ellipse
     cx="557.02454"
     cy="339.99609"
     rx="2.6919999"
     ry="4.2069998"
     id="ellipse374" /><ellipse
     fill="#d8b78b"
     stroke="#000000"
     stroke-miterlimit="10"
     cx="546.03058"
     cy="359.3251"
     rx="29.221001"
     ry="17.532"
     id="ellipse376" /><path
     d="m 518.42954,347.5581 c -0.004,10e-4 -0.471,0.108 -1.129,-0.295 -1.024,-0.627 -2.444,-2.412 -3.399,-7.396 -0.56,-2.081 -0.852,-3.766 -0.954,-5.129 -0.021,-0.273 -0.034,-0.533 -0.04,-0.78 -0.062,-2.478 0.569,-3.732 1.263,-4.365 1.104,-1.008 2.723,-0.776 3.473,-0.592 0.25,0.061 0.404,0.117 0.41,0.119 l 0.351,-0.937 c -0.121,-0.045 -2.973,-1.087 -4.901,0.665 -1.682,1.527 -2.035,4.63 -1.064,9.212 0.138,0.652 0.303,1.334 0.493,2.046 0.815,4.251 2.11,6.946 3.848,8.01 0.606,0.371 1.134,0.454 1.484,0.454 0.249,0 0.41,-0.042 0.446,-0.053 z"
     id="path378" /><path
     d="m 578.46854,328.8491 c -1.928,-1.751 -4.779,-0.71 -4.9,-0.665 l 0.35,0.937 c 0.023,-0.01 2.412,-0.87 3.883,0.473 0.07,0.063 0.139,0.133 0.207,0.209 0.943,1.068 1.639,3.474 0.361,8.886 -0.09,0.378 -0.189,0.771 -0.299,1.18 v 0 c -0.004,0.013 -0.006,0.023 -0.01,0.036 -0.934,4.881 -2.33,6.679 -3.338,7.327 -0.684,0.44 -1.172,0.33 -1.182,0.327 l -0.279,0.96 c 0.037,0.011 0.197,0.053 0.447,0.053 0.35,0 0.879,-0.083 1.484,-0.454 1.74,-1.065 3.035,-3.766 3.842,-7.989 1.544,-5.743 1.354,-9.537 -0.566,-11.28 z"
     id="path380" /><path
     d="m 527.55054,328.4331 c 0.026,0.563 0.534,-0.449 0.884,-0.771 0.592,-0.546 1.415,-0.988 2.243,-1.382 2.09,-0.992 4.617,-1.367 6.983,-1.417 0.487,-0.01 0.591,-3.056 -0.484,-3.033 -5.229,0.108 -10.972,2.332 -10.803,5.964 0.024,0.512 0.048,1.464 0.678,1.805 0.473,0.257 0.502,-1.102 0.499,-1.166 z"
     id="path382" /><path
     d="m 564.83454,328.4331 c -0.026,0.563 -0.535,-0.449 -0.884,-0.771 -0.592,-0.546 -1.415,-0.988 -2.243,-1.382 -2.09,-0.992 -4.617,-1.367 -6.983,-1.417 -0.487,-0.01 -0.591,-3.056 0.484,-3.033 5.229,0.108 10.972,2.332 10.802,5.964 -0.023,0.512 -0.047,1.464 -0.678,1.805 -0.472,0.257 -0.502,-1.102 -0.498,-1.166 z"
     id="path384" /><path
     fill="none"
     stroke="#000000"
     stroke-miterlimit="10"
     d="m 516.80954,359.3251 c 29.282,-14.221 58.442,0 58.442,0"
     id="path386" /></g>













<g
   id="g1420"
   transform="translate(-506.50116,144.27182)"><path
     fill="#d8b78b"
     d="m 564.422,70.581 c 0.191,1.381 0.465,6.064 2.051,6.827 5.137,2.47 6.938,-9.131 7.508,-11.925 0.568,-2.78 -0.219,-9.322 -4.438,-7.75 -0.139,0.052 -0.238,0.115 -0.311,0.187 -1.84,-0.794 -3.953,-0.59 -4.625,1.66 -0.996,3.336 -0.656,7.626 -0.185,11.001 z"
     id="path388" /><path
     fill="#d8b78b"
     d="m 516.499,59.58 c -0.671,-2.25 -2.785,-2.454 -4.626,-1.66 -0.07,-0.071 -0.17,-0.135 -0.309,-0.187 -4.219,-1.572 -5.007,4.97 -4.439,7.75 0.57,2.794 2.373,14.395 7.51,11.925 1.586,-0.763 1.858,-5.446 2.051,-6.827 0.468,-3.375 0.808,-7.665 -0.187,-11.001 z"
     id="path390" /><path
     fill="#7f512e"
     stroke="#000000"
     stroke-miterlimit="10"
     d="m 569.139,64.486 c 0,-15.276 -12.766,-27.66 -28.514,-27.66 -15.746,0 -28.512,11.222 -28.512,27.66 0,30.696 12.766,27.659 28.512,27.659 15.748,0.001 28.514,3.038 28.514,-27.659 z"
     id="path392" /><path
     fill="#d8b78b"
     stroke="#000000"
     stroke-width="1.2015"
     stroke-miterlimit="10"
     d="m 517.143,74.014 c 0,14.198 10.559,25.708 23.583,25.708 13.022,0 23.581,-11.51 23.581,-25.708 0,-14.199 -0.125,-32.15 -23.684,-26.561 -26.684,-5.59 -23.48,12.361 -23.48,26.561 z"
     id="path394" /><ellipse
     fill="#ffffff"
     stroke="#000000"
     stroke-miterlimit="10"
     cx="529.18201"
     cy="66.352997"
     rx="6.671"
     ry="8.5340004"
     id="ellipse396" /><ellipse
     fill="#ffffff"
     stroke="#000000"
     stroke-miterlimit="10"
     cx="552.18298"
     cy="66.352997"
     rx="6.671"
     ry="8.5340004"
     id="ellipse398" /><ellipse
     cx="529.62"
     cy="69.314003"
     rx="2.6919999"
     ry="4.2069998"
     id="ellipse400" /><ellipse
     cx="551.62"
     cy="69.314003"
     rx="2.6919999"
     ry="4.2069998"
     id="ellipse402" /><ellipse
     fill="#d8b78b"
     stroke="#000000"
     stroke-miterlimit="10"
     cx="540.62598"
     cy="88.642998"
     rx="29.221001"
     ry="17.532"
     id="ellipse404" /><path
     d="m 513.025,76.876 c -0.004,10e-4 -0.471,0.108 -1.129,-0.295 -1.024,-0.627 -2.443,-2.412 -3.398,-7.396 -0.561,-2.081 -0.852,-3.766 -0.955,-5.129 -0.021,-0.273 -0.033,-0.533 -0.04,-0.78 -0.062,-2.478 0.569,-3.732 1.263,-4.365 1.105,-1.008 2.723,-0.776 3.473,-0.592 0.25,0.061 0.404,0.117 0.41,0.119 L 513,57.501 c -0.121,-0.045 -2.972,-1.087 -4.901,0.665 -1.682,1.527 -2.035,4.63 -1.064,9.212 0.138,0.652 0.303,1.334 0.494,2.046 0.814,4.251 2.109,6.946 3.847,8.01 0.606,0.371 1.134,0.454 1.485,0.454 0.248,0 0.409,-0.042 0.445,-0.053 z"
     id="path406" /><path
     d="m 573.064,58.167 c -1.928,-1.751 -4.779,-0.71 -4.9,-0.665 l 0.35,0.937 c 0.023,-0.01 2.412,-0.87 3.883,0.473 0.07,0.063 0.139,0.133 0.207,0.209 0.943,1.068 1.639,3.474 0.361,8.886 -0.09,0.378 -0.189,0.771 -0.299,1.18 v 0 c -0.004,0.013 -0.006,0.023 -0.01,0.036 -0.934,4.881 -2.33,6.679 -3.338,7.327 -0.684,0.44 -1.172,0.33 -1.182,0.327 l -0.279,0.96 c 0.037,0.011 0.197,0.053 0.447,0.053 0.35,0 0.879,-0.083 1.484,-0.454 1.74,-1.065 3.035,-3.766 3.842,-7.989 1.544,-5.743 1.354,-9.537 -0.566,-11.28 z"
     id="path408" /><path
     d="m 522.146,57.751 c 0.026,0.563 0.535,-0.449 0.884,-0.771 0.592,-0.546 1.415,-0.988 2.243,-1.382 2.09,-0.992 4.617,-1.367 6.983,-1.417 0.487,-0.01 0.591,-3.056 -0.484,-3.033 -5.229,0.108 -10.972,2.332 -10.802,5.964 0.023,0.512 0.047,1.464 0.678,1.805 0.472,0.257 0.502,-1.102 0.498,-1.166 z"
     id="path410" /><path
     d="m 559.43,57.751 c -0.026,0.563 -0.535,-0.449 -0.884,-0.771 -0.592,-0.546 -1.415,-0.988 -2.243,-1.382 -2.09,-0.992 -4.617,-1.367 -6.983,-1.417 -0.487,-0.01 -0.591,-3.056 0.484,-3.033 5.229,0.108 10.972,2.332 10.802,5.964 -0.023,0.512 -0.047,1.464 -0.678,1.805 -0.472,0.257 -0.502,-1.102 -0.498,-1.166 z"
     id="path412" /><path
     fill="none"
     stroke="#000000"
     stroke-miterlimit="10"
     d="m 511.405,85.643 c 29.221,17.532 58.442,0 58.442,0"
     id="path414" /></g>









































































<g
   id="g1362"
   transform="translate(6.154326,-184.853)"><path
     fill="#d8b78b"
     d="m 194.467,219.108 c 0.191,1.381 0.465,6.063 2.051,6.826 5.137,2.47 6.938,-9.131 7.509,-11.925 0.567,-2.78 -0.22,-9.322 -4.438,-7.749 -0.139,0.051 -0.238,0.115 -0.31,0.186 -1.841,-0.794 -3.954,-0.59 -4.626,1.661 -0.996,3.335 -0.656,7.626 -0.186,11.001 z"
     id="path600" /><path
     fill="#d8b78b"
     d="m 146.544,208.107 c -0.671,-2.251 -2.785,-2.455 -4.625,-1.661 -0.071,-0.07 -0.171,-0.135 -0.31,-0.186 -4.219,-1.573 -5.007,4.969 -4.438,7.749 0.57,2.794 2.372,14.395 7.509,11.925 1.586,-0.763 1.858,-5.445 2.051,-6.826 0.469,-3.375 0.809,-7.666 -0.187,-11.001 z"
     id="path602" /><path
     fill="#7f512e"
     stroke="#000000"
     stroke-miterlimit="10"
     d="m 199.184,213.013 c 0,-15.276 -12.766,-27.66 -28.513,-27.66 -15.746,0 -28.512,11.222 -28.512,27.66 0,30.696 12.766,27.66 28.512,27.66 15.747,0 28.513,3.036 28.513,-27.66 z"
     id="path604" /><path
     fill="#d8b78b"
     stroke="#000000"
     stroke-width="1.2015"
     stroke-miterlimit="10"
     d="m 147.188,222.54 c 0,14.198 10.559,25.708 23.582,25.708 13.023,0 23.582,-11.51 23.582,-25.708 0,-14.198 -0.126,-32.15 -23.685,-26.561 -26.682,-5.589 -23.479,12.363 -23.479,26.561 z"
     id="path606" /><ellipse
     fill="#ffffff"
     stroke="#000000"
     stroke-miterlimit="10"
     cx="159.22701"
     cy="214.88"
     rx="6.671"
     ry="8.5349998"
     id="ellipse608" /><ellipse
     fill="#ffffff"
     stroke="#000000"
     stroke-miterlimit="10"
     cx="182.228"
     cy="214.88"
     rx="6.671"
     ry="8.5349998"
     id="ellipse610" /><ellipse
     cx="159.66499"
     cy="217.842"
     rx="2.6919999"
     ry="4.2059999"
     id="ellipse612" /><ellipse
     cx="181.66499"
     cy="217.842"
     rx="2.6919999"
     ry="4.2059999"
     id="ellipse614" /><ellipse
     fill="#d8b78b"
     stroke="#000000"
     stroke-miterlimit="10"
     cx="170.67101"
     cy="237.16901"
     rx="29.221001"
     ry="17.533001"
     id="ellipse616" /><path
     d="m 143.071,225.403 c -0.005,0 -0.471,0.108 -1.13,-0.295 -1.024,-0.627 -2.443,-2.413 -3.398,-7.396 -0.56,-2.08 -0.852,-3.765 -0.955,-5.129 -0.021,-0.272 -0.033,-0.532 -0.04,-0.78 -0.062,-2.478 0.569,-3.731 1.264,-4.364 1.104,-1.009 2.723,-0.776 3.473,-0.593 0.25,0.062 0.403,0.117 0.409,0.12 l 0.351,-0.938 c -0.121,-0.045 -2.972,-1.086 -4.901,0.666 -1.681,1.526 -2.035,4.63 -1.064,9.212 0.138,0.651 0.303,1.334 0.494,2.046 0.815,4.25 2.109,6.945 3.847,8.009 0.606,0.372 1.135,0.455 1.485,0.455 0.249,0 0.409,-0.042 0.446,-0.053 z"
     id="path618" /><path
     d="m 203.11,206.694 c -1.928,-1.752 -4.78,-0.711 -4.901,-0.666 l 0.351,0.938 c 0.023,-0.01 2.411,-0.871 3.883,0.473 0.069,0.063 0.138,0.133 0.206,0.209 0.944,1.067 1.64,3.473 0.361,8.885 -0.09,0.379 -0.189,0.771 -0.299,1.18 v 0 c -0.003,0.013 -0.006,0.023 -0.009,0.036 -0.934,4.882 -2.33,6.68 -3.338,7.328 -0.685,0.44 -1.173,0.329 -1.182,0.327 l -0.279,0.96 c 0.037,0.011 0.197,0.053 0.446,0.053 0.351,0 0.879,-0.084 1.485,-0.455 1.739,-1.065 3.034,-3.766 3.841,-7.989 1.545,-5.742 1.354,-9.536 -0.565,-11.279 z"
     id="path620" /><path
     d="m 153.65,205.984 c -0.12,0.55 0.633,-0.295 1.053,-0.516 0.713,-0.374 1.622,-0.588 2.524,-0.754 2.275,-0.417 4.814,-0.126 7.112,0.438 0.474,0.116 1.362,-2.799 0.317,-3.055 -5.078,-1.249 -11.201,-0.588 -11.978,2.965 -0.109,0.5 -0.333,1.426 0.188,1.918 0.391,0.372 0.771,-0.932 0.784,-0.996 z"
     id="path622" /><path
     d="m 188.016,205.984 c 0.12,0.55 -0.632,-0.295 -1.053,-0.516 -0.713,-0.374 -1.622,-0.588 -2.524,-0.754 -2.275,-0.417 -4.814,-0.126 -7.112,0.438 -0.474,0.117 -1.362,-2.799 -0.317,-3.055 5.079,-1.249 11.201,-0.588 11.979,2.965 0.108,0.5 0.333,1.426 -0.188,1.918 -0.392,0.372 -0.772,-0.932 -0.785,-0.996 z"
     id="path624" /><g
     id="g630">
	<g
   id="g628">
		<path
   d="m 183.225,241.319 c -0.393,0.674 -1.327,0.973 -2.053,1.042 -7.459,0.714 -15.875,-2.208 -22.92,-4.211 -1.474,-0.419 -3.328,-0.156 -4.793,0.155 -0.38,0.081 -2.583,0.706 -1.164,1.109 9.506,2.702 19.604,5.309 29.579,4.353 2.046,-0.196 6.851,-0.487 8.109,-2.648 0.318,-0.546 -5.95,-1.187 -6.758,0.2 z"
   id="path626" />
	</g>
</g></g>














<g
   id="g1344"
   transform="translate(-178.40165,-182.80238)"><path
     fill="#d8b78b"
     d="m 288.467,219.108 c 0.191,1.381 0.465,6.063 2.051,6.826 5.137,2.47 6.938,-9.131 7.509,-11.925 0.567,-2.78 -0.22,-9.322 -4.438,-7.749 -0.139,0.051 -0.238,0.115 -0.31,0.186 -1.841,-0.794 -3.954,-0.59 -4.626,1.661 -0.996,3.335 -0.656,7.626 -0.186,11.001 z"
     id="path632" /><path
     fill="#d8b78b"
     d="m 240.544,208.107 c -0.671,-2.251 -2.785,-2.455 -4.625,-1.661 -0.071,-0.07 -0.171,-0.135 -0.31,-0.186 -4.219,-1.573 -5.007,4.969 -4.438,7.749 0.57,2.794 2.372,14.395 7.509,11.925 1.586,-0.763 1.858,-5.445 2.051,-6.826 0.469,-3.375 0.809,-7.666 -0.187,-11.001 z"
     id="path634" /><path
     fill="#7f512e"
     stroke="#000000"
     stroke-miterlimit="10"
     d="m 293.184,213.013 c 0,-15.276 -12.766,-27.66 -28.513,-27.66 -15.746,0 -28.512,11.222 -28.512,27.66 0,30.696 12.766,27.66 28.512,27.66 15.747,0 28.513,3.036 28.513,-27.66 z"
     id="path636" /><path
     fill="#d8b78b"
     stroke="#000000"
     stroke-width="1.2015"
     stroke-miterlimit="10"
     d="m 241.188,222.54 c 0,14.198 10.559,25.708 23.582,25.708 13.023,0 23.582,-11.51 23.582,-25.708 0,-14.198 -0.126,-32.15 -23.685,-26.561 -26.682,-5.589 -23.479,12.363 -23.479,26.561 z"
     id="path638" /><ellipse
     fill="#ffffff"
     stroke="#000000"
     stroke-miterlimit="10"
     cx="253.22701"
     cy="214.88"
     rx="6.671"
     ry="8.5349998"
     id="ellipse640" /><ellipse
     fill="#ffffff"
     stroke="#000000"
     stroke-miterlimit="10"
     cx="276.228"
     cy="214.88"
     rx="6.671"
     ry="8.5349998"
     id="ellipse642" /><ellipse
     cx="253.66499"
     cy="217.842"
     rx="2.6919999"
     ry="4.2059999"
     id="ellipse644" /><ellipse
     cx="275.66501"
     cy="217.842"
     rx="2.6919999"
     ry="4.2059999"
     id="ellipse646" /><ellipse
     fill="#d8b78b"
     stroke="#000000"
     stroke-miterlimit="10"
     cx="264.67099"
     cy="237.16901"
     rx="29.221001"
     ry="17.533001"
     id="ellipse648" /><path
     d="m 237.071,225.403 c -0.005,0 -0.471,0.108 -1.13,-0.295 -1.024,-0.627 -2.443,-2.413 -3.398,-7.396 -0.56,-2.08 -0.852,-3.765 -0.955,-5.129 -0.021,-0.272 -0.033,-0.532 -0.04,-0.78 -0.062,-2.478 0.569,-3.731 1.264,-4.364 1.104,-1.009 2.723,-0.776 3.473,-0.593 0.25,0.062 0.403,0.117 0.409,0.12 l 0.351,-0.938 c -0.121,-0.045 -2.972,-1.086 -4.901,0.666 -1.681,1.526 -2.035,4.63 -1.064,9.212 0.138,0.651 0.303,1.334 0.494,2.046 0.815,4.25 2.109,6.945 3.847,8.009 0.606,0.372 1.135,0.455 1.485,0.455 0.249,0 0.409,-0.042 0.446,-0.053 z"
     id="path650" /><path
     d="m 297.11,206.694 c -1.928,-1.752 -4.78,-0.711 -4.901,-0.666 l 0.351,0.938 c 0.023,-0.01 2.411,-0.871 3.883,0.473 0.069,0.063 0.138,0.133 0.206,0.209 0.944,1.067 1.64,3.473 0.361,8.885 -0.09,0.379 -0.189,0.771 -0.299,1.18 v 0 c -0.003,0.013 -0.006,0.023 -0.009,0.036 -0.934,4.882 -2.33,6.68 -3.338,7.328 -0.685,0.44 -1.173,0.329 -1.182,0.327 l -0.279,0.96 c 0.037,0.011 0.197,0.053 0.446,0.053 0.351,0 0.879,-0.084 1.485,-0.455 1.739,-1.065 3.034,-3.766 3.841,-7.989 1.545,-5.742 1.354,-9.536 -0.565,-11.279 z"
     id="path652" /><path
     d="m 246.268,206.271 c 0.026,0.562 0.535,-0.449 0.884,-0.771 0.592,-0.545 1.415,-0.987 2.243,-1.381 2.09,-0.992 4.618,-1.368 6.983,-1.418 0.488,-0.01 0.592,-3.056 -0.484,-3.033 -5.229,0.108 -10.971,2.332 -10.802,5.964 0.023,0.512 0.047,1.464 0.678,1.805 0.471,0.255 0.501,-1.103 0.498,-1.166 z"
     id="path654" /><path
     d="m 282.398,206.27 c -0.026,0.563 -0.534,-0.448 -0.884,-0.771 -0.592,-0.545 -1.415,-0.988 -2.243,-1.381 -2.09,-0.992 -4.617,-1.368 -6.983,-1.418 -0.487,-0.01 -0.592,-3.056 0.484,-3.033 5.229,0.108 10.972,2.332 10.803,5.964 -0.024,0.512 -0.048,1.464 -0.678,1.805 -0.472,0.256 -0.501,-1.102 -0.499,-1.166 z"
     id="path656" /><ellipse
     stroke="#000000"
     stroke-width="0.9376"
     stroke-miterlimit="10"
     cx="264.67099"
     cy="242.194"
     rx="7.2420001"
     ry="5.0240002"
     id="ellipse658" /><ellipse
     fill="#cc0033"
     cx="264.67099"
     cy="246.131"
     rx="3.3469999"
     ry="0.88999999"
     id="ellipse660" /></g>
<path
   fill="#d8b78b"
   d="m 63.577366,98.822592 c 0.191,1.380998 0.465,6.063998 2.051,6.826998 5.137,2.47 6.938,-9.130998 7.509,-11.924998 0.567,-2.78 -0.22,-9.322 -4.438,-7.75 -0.139,0.052 -0.238,0.115 -0.31,0.187 -1.841,-0.794 -3.954,-0.59 -4.626,1.66 -0.996,3.336 -0.656,7.626 -0.186,11.001 z"
   id="path662" />
<path
   fill="#d8b78b"
   d="m 15.654366,87.821592 c -0.671,-2.25 -2.785,-2.454 -4.625,-1.66 -0.071,-0.071 -0.171,-0.135 -0.31,-0.187 -4.219,-1.572 -5.007,4.97 -4.438,7.75 0.57,2.794 2.372,14.394998 7.509,11.924998 1.586,-0.763 1.858,-5.446 2.051,-6.826998 0.469,-3.375 0.809,-7.665 -0.187,-11.001 z"
   id="path664" />
<path
   fill="#7f512e"
   stroke="#000000"
   stroke-miterlimit="10"
   d="m 68.293366,92.727592 c 0,-15.276 -12.766,-27.66 -28.513,-27.66 -15.746,0 -28.512,11.222 -28.512,27.66 0,30.695998 12.766,27.658998 28.512,27.658998 15.748,0.001 28.513,3.038 28.513,-27.658998 z"
   id="path666" />
<path
   fill="#d8b78b"
   stroke="#000000"
   stroke-width="1.2015"
   stroke-miterlimit="10"
   d="m 16.298366,102.25559 c 0,14.198 10.559,25.708 23.582,25.708 13.023,0 23.582,-11.51 23.582,-25.708 0,-14.198998 -0.126,-32.149998 -23.685,-26.560998 -26.682,-5.59 -23.479,12.361 -23.479,26.560998 z"
   id="path668" />
<ellipse
   fill="#d8b78b"
   cx="39.781372"
   cy="116.8846"
   rx="29.221001"
   ry="17.532"
   id="ellipse670" />
<path
   d="m 39.781366,134.91659 c -16.388,0 -29.721,-8.089 -29.721,-18.032 0,-9.943 13.333,-18.031998 29.721,-18.031998 16.389,0 29.722,8.088998 29.722,18.031998 0,9.943 -13.334,18.032 -29.722,18.032 z m 0,-35.064998 c -15.836,0 -28.721,7.640998 -28.721,17.031998 0,9.391 12.885,17.032 28.721,17.032 15.837,0 28.722,-7.641 28.722,-17.032 0,-9.391 -12.885,-17.031998 -28.722,-17.031998 z"
   id="path672" />
<path
   d="m 12.181366,105.11759 c -0.005,10e-4 -0.471,0.108 -1.13,-0.295 -1.024,-0.627 -2.443,-2.412 -3.398,-7.395998 -0.56,-2.081 -0.852,-3.766 -0.955,-5.129 -0.021,-0.273 -0.033,-0.533 -0.04,-0.78 -0.062,-2.478 0.569,-3.732 1.264,-4.365 1.104,-1.008 2.723,-0.776 3.473,-0.592 0.25,0.061 0.403,0.117 0.409,0.119 l 0.351,-0.937 c -0.121,-0.045 -2.972,-1.087 -4.901,0.665 -1.681,1.527 -2.035,4.63 -1.064,9.212 0.138,0.652 0.303,1.334 0.494,2.046 0.815,4.250998 2.109,6.945998 3.847,8.009998 0.606,0.371 1.135,0.454 1.485,0.454 0.249,0 0.409,-0.042 0.446,-0.053 z"
   id="path674" />
<path
   d="m 72.220366,86.408592 c -1.928,-1.751 -4.78,-0.71 -4.901,-0.665 l 0.351,0.937 c 0.023,-0.01 2.411,-0.87 3.883,0.473 0.069,0.063 0.138,0.133 0.206,0.209 0.944,1.068 1.64,3.474 0.361,8.886 -0.09,0.378 -0.189,0.771 -0.299,1.18 v 0 c -0.003,0.013 -0.006,0.023 -0.009,0.036 -0.934,4.880998 -2.33,6.678998 -3.338,7.326998 -0.685,0.44 -1.173,0.33 -1.182,0.327 l -0.279,0.96 c 0.037,0.011 0.197,0.053 0.446,0.053 0.351,0 0.879,-0.083 1.485,-0.454 1.739,-1.065 3.034,-3.766 3.841,-7.988998 1.544,-5.743 1.354,-9.537 -0.565,-11.28 z"
   id="path676" />
<path
   d="m 22.586366,86.384592 c 0.075,0.559 0.494,-0.494 0.813,-0.845 0.542,-0.595 1.323,-1.107 2.114,-1.571 1.995,-1.171 4.48,-1.765 6.833,-2.021 0.485,-0.053 0.323,-3.096 -0.747,-2.979 -5.199,0.563 -10.727,3.279 -10.241,6.883 0.068,0.507 0.175,1.454 0.832,1.738 0.494,0.215 0.405,-1.141 0.396,-1.205 z"
   id="path678" />
<path
   d="m 56.299366,86.384592 c -0.075,0.559 -0.493,-0.494 -0.813,-0.845 -0.542,-0.595 -1.323,-1.107 -2.114,-1.571 -1.996,-1.171 -4.481,-1.765 -6.834,-2.021 -0.484,-0.053 -0.322,-3.096 0.747,-2.979 5.199,0.563 10.727,3.279 10.241,6.883 -0.068,0.507 -0.174,1.454 -0.832,1.738 -0.492,0.215 -0.404,-1.141 -0.395,-1.205 z"
   id="path680" />


<path
   fill="none"
   stroke="#000000"
   stroke-width="0.8398"
   stroke-linecap="round"
   stroke-miterlimit="10"
   d="m 33.123366,94.511592 c -5.21,2.262 -8.696,-3.598 -8.696,-3.598"
   id="path746" />
<path
   fill="none"
   stroke="#000000"
   stroke-width="0.8398"
   stroke-linecap="round"
   stroke-miterlimit="10"
   d="m 46.428366,94.511592 c 5.209,2.262 8.695,-3.598 8.695,-3.598"
   id="path748" />
<path
   fill="#ffffff"
   d="m 11.530366,115.50559 c 2.765,2.166 14.529,10.639 29.359,10.641 10e-4,0 0.003,0 0.003,0 9.704,0 18.859,-3.58 27.228,-10.643 -8.363,-3.948 -17.521,-5.949 -27.23,-5.949 -14.722,0 -26.403,4.658 -29.36,5.951 z"
   id="path750" />
<path
   fill="none"
   stroke="#000000"
   stroke-linejoin="bevel"
   stroke-miterlimit="10"
   d="m 10.586366,115.38459 c 0,0 29.221,25.338 58.441,0 -29.22,-14.244 -58.441,0 -58.441,0"
   id="path752" />
<g
   id="g770"
   transform="translate(-316.81863,-120.25841)">
	<path
   fill="none"
   stroke="#000000"
   stroke-width="0.9999"
   stroke-miterlimit="10"
   d="m 327.405,235.643 c 0,0 29.218,6.967 58.436,0"
   id="path754" />
	
		<line
   fill="none"
   stroke="#000000"
   stroke-width="0.9999"
   stroke-miterlimit="10"
   x1="333.298"
   y1="233.343"
   x2="333.298"
   y2="240.05099"
   id="line756" />
	
		<line
   fill="none"
   stroke="#000000"
   stroke-width="0.9999"
   stroke-miterlimit="10"
   x1="341.073"
   y1="231.418"
   x2="341.073"
   y2="243.10699"
   id="line758" />
	
		<line
   fill="none"
   stroke="#000000"
   stroke-width="0.9999"
   stroke-miterlimit="10"
   x1="348.31"
   y1="230.05499"
   x2="348.31"
   y2="245.519"
   id="line760" />
	
		<line
   fill="none"
   stroke="#000000"
   stroke-width="0.9999"
   stroke-miterlimit="10"
   x1="380.30701"
   y1="233.343"
   x2="380.30701"
   y2="240.05099"
   id="line762" />
	
		<line
   fill="none"
   stroke="#000000"
   stroke-width="1.0589"
   stroke-miterlimit="10"
   x1="372.53"
   y1="230.951"
   x2="372.53"
   y2="244.06"
   id="line764" />
	
		<line
   fill="none"
   stroke="#000000"
   stroke-width="1.0216"
   stroke-miterlimit="10"
   x1="365.29401"
   y1="230.05499"
   x2="365.29401"
   y2="246.19501"
   id="line766" />
	
		<line
   fill="none"
   stroke="#000000"
   stroke-width="0.9999"
   stroke-miterlimit="10"
   x1="356.62299"
   y1="229.32201"
   x2="356.62299"
   y2="246.90401"
   id="line768" />
</g>
<line
   fill="none"
   stroke="#000000"
   stroke-width="0.8398"
   stroke-linecap="round"
   stroke-miterlimit="10"
   x1="33.123352"
   y1="94.511597"
   x2="31.491364"
   y2="93.293594"
   id="line772" />
<line
   fill="none"
   stroke="#000000"
   stroke-width="0.8398"
   stroke-linecap="round"
   stroke-miterlimit="10"
   x1="46.491364"
   y1="94.511597"
   x2="48.123352"
   y2="93.293594"
   id="line774" />
<path
   fill="#d8b78b"
   d="m 155.70937,98.692592 c 0.191,1.380998 0.465,6.062998 2.051,6.825998 5.137,2.47 6.938,-9.130998 7.508,-11.924998 0.568,-2.78 -0.219,-9.322 -4.438,-7.749 -0.139,0.051 -0.238,0.115 -0.311,0.186 -1.84,-0.794 -3.953,-0.59 -4.625,1.661 -0.995,3.335 -0.655,7.626 -0.185,11.001 z"
   id="path776" />
<path
   fill="#d8b78b"
   d="m 107.78637,87.691592 c -0.671,-2.251 -2.785,-2.455 -4.626,-1.661 -0.07,-0.07 -0.17,-0.135 -0.309,-0.186 -4.219004,-1.573 -5.007004,4.969 -4.439004,7.749 0.57,2.794 2.373004,14.394998 7.510004,11.924998 1.586,-0.763 1.858,-5.445 2.051,-6.825998 0.469,-3.375 0.809,-7.666 -0.187,-11.001 z"
   id="path778" />
<path
   fill="#7f512e"
   stroke="#000000"
   stroke-miterlimit="10"
   d="m 160.42637,92.596592 c 0,-15.276 -12.766,-27.66 -28.514,-27.66 -15.746,0 -28.512,11.222 -28.512,27.66 0,30.695998 12.766,27.659998 28.512,27.659998 15.748,10e-4 28.514,3.037 28.514,-27.659998 z"
   id="path780" />
<path
   fill="#d8b78b"
   stroke="#000000"
   stroke-width="1.2015"
   stroke-miterlimit="10"
   d="m 108.43037,102.12459 c 0,14.198 10.559,25.708 23.583,25.708 13.022,0 23.581,-11.51 23.581,-25.708 0,-14.197998 -0.125,-32.149998 -23.684,-26.560998 -26.683,-5.59 -23.48,12.363 -23.48,26.560998 z"
   id="path782" />
<ellipse
   fill="#d8b78b"
   stroke="#000000"
   stroke-miterlimit="10"
   cx="131.91437"
   cy="116.75359"
   rx="29.221001"
   ry="17.533001"
   id="ellipse784" />
<path
   d="m 104.31337,104.98759 c -0.004,0 -0.471,0.108 -1.129,-0.295 -1.024,-0.627 -2.443,-2.413 -3.398004,-7.395998 -0.561,-2.08 -0.852,-3.765 -0.955,-5.129 -0.021,-0.272 -0.033,-0.532 -0.04,-0.78 -0.062,-2.478 0.569,-3.731 1.263004,-4.364 1.105,-1.009 2.723,-0.776 3.473,-0.593 0.25,0.062 0.404,0.117 0.41,0.12 l 0.351,-0.938 c -0.121,-0.045 -2.972,-1.086 -4.901004,0.666 -1.682,1.526 -2.035,4.63 -1.064,9.212 0.138,0.651 0.303,1.334 0.494,2.046 0.814,4.249998 2.109004,6.944998 3.847004,8.008998 0.606,0.372 1.134,0.455 1.485,0.455 0.248,0 0.409,-0.042 0.445,-0.053 z"
   id="path786" />
<path
   d="m 164.35237,86.278592 c -1.928,-1.752 -4.779,-0.711 -4.9,-0.666 l 0.35,0.938 c 0.023,-0.01 2.412,-0.871 3.883,0.473 0.07,0.063 0.139,0.133 0.207,0.209 0.943,1.067 1.639,3.473 0.361,8.885 -0.09,0.379 -0.189,0.771 -0.299,1.18 v 0 c -0.004,0.013 -0.006,0.023 -0.01,0.036 -0.934,4.881998 -2.33,6.679998 -3.338,7.327998 -0.684,0.44 -1.172,0.329 -1.182,0.327 l -0.279,0.96 c 0.037,0.011 0.197,0.053 0.447,0.053 0.35,0 0.879,-0.084 1.484,-0.455 1.74,-1.065 3.035,-3.766 3.842,-7.988998 1.543,-5.742 1.354,-9.537 -0.566,-11.279 z"
   id="path788" />
<path
   d="m 113.43437,85.862592 c 0.026,0.562 0.535,-0.449 0.884,-0.771 0.592,-0.545 1.415,-0.987 2.243,-1.381 2.09,-0.992 4.617,-1.368 6.983,-1.417 0.487,-0.011 0.591,-3.057 -0.484,-3.033 -5.229,0.107 -10.972,2.331 -10.802,5.964 0.023,0.511 0.047,1.463 0.678,1.805 0.472,0.255 0.502,-1.102 0.498,-1.167 z"
   id="path790" />
<path
   d="m 150.71737,85.862592 c -0.026,0.562 -0.535,-0.449 -0.884,-0.771 -0.592,-0.545 -1.415,-0.987 -2.243,-1.381 -2.09,-0.992 -4.617,-1.368 -6.983,-1.417 -0.487,-0.011 -0.591,-3.057 0.484,-3.033 5.229,0.107 10.972,2.331 10.802,5.964 -0.023,0.511 -0.047,1.463 -0.678,1.805 -0.471,0.255 -0.502,-1.102 -0.498,-1.167 z"
   id="path792" />
<path
   fill="none"
   stroke="#000000"
   stroke-miterlimit="10"
   d="m 102.69337,113.75359 c 29.221,17.533 58.442,0 58.442,0"
   id="path794" />
<path
   fill="#cc0033"
   stroke="#000000"
   stroke-width="0.7087"
   stroke-miterlimit="10"
   d="m 146.10837,86.781592 c -1.102,-0.296 -2.279,0.205 -3.2,1.213 -0.921,-1.008 -2.099,-1.509 -3.201,-1.214 -1.842,0.494 -2.767,3.015 -2.066,5.63 0.658,2.458 3.331,7.153 5.179,7.297 0.029,0.003 0.059,0.002 0.089,0.002 0.028,0 0.059,0.001 0.087,-0.002 1.85,-0.144 4.521,-4.839 5.181,-7.297 0.698,-2.615 -0.226,-5.135 -2.069,-5.629 z"
   id="path796" />
<path
   fill="#cc0033"
   stroke="#000000"
   stroke-width="0.7087"
   stroke-miterlimit="10"
   d="m 124.10837,86.781592 c -1.102,-0.296 -2.279,0.205 -3.2,1.213 -0.921,-1.008 -2.099,-1.509 -3.201,-1.214 -1.842,0.494 -2.767,3.015 -2.066,5.63 0.658,2.458 3.331,7.153 5.179,7.297 0.029,0.003 0.059,0.002 0.089,0.002 0.028,0 0.059,0.001 0.087,-0.002 1.85,-0.144 4.521,-4.839 5.181,-7.297 0.698,-2.615 -0.226,-5.135 -2.069,-5.629 z"
   id="path798" />
<path
   fill="#d8b78b"
   d="m 247.70937,98.849592 c 0.191,1.380998 0.465,6.062998 2.051,6.825998 5.137,2.47 6.938,-9.130998 7.508,-11.924998 0.568,-2.78 -0.219,-9.322 -4.438,-7.749 -0.139,0.051 -0.238,0.115 -0.311,0.186 -1.84,-0.794 -3.953,-0.59 -4.625,1.661 -0.995,3.335 -0.655,7.626 -0.185,11.001 z"
   id="path800" />
<path
   fill="#d8b78b"
   d="m 199.78637,87.848592 c -0.671,-2.251 -2.785,-2.455 -4.626,-1.661 -0.07,-0.07 -0.17,-0.135 -0.309,-0.186 -4.219,-1.573 -5.007,4.969 -4.439,7.749 0.57,2.794 2.373,14.394998 7.51,11.924998 1.586,-0.763 1.858,-5.445 2.051,-6.825998 0.469,-3.375 0.809,-7.666 -0.187,-11.001 z"
   id="path802" />
<path
   fill="#7f512e"
   stroke="#000000"
   stroke-miterlimit="10"
   d="m 252.42637,92.754592 c 0,-15.276 -12.766,-27.66 -28.514,-27.66 -15.746,0 -28.512,11.222 -28.512,27.66 0,30.695998 12.766,27.659998 28.512,27.659998 15.748,0 28.514,3.036 28.514,-27.659998 z"
   id="path804" />
<path
   fill="#d8b78b"
   stroke="#000000"
   stroke-width="1.2015"
   stroke-miterlimit="10"
   d="m 200.43037,102.28159 c 0,14.198 10.559,25.708 23.583,25.708 13.022,0 23.581,-11.51 23.581,-25.708 0,-14.197998 -0.125,-32.149998 -23.684,-26.560998 -26.683,-5.589 -23.48,12.363 -23.48,26.560998 z"
   id="path806" />
<ellipse
   fill="#ffffff"
   stroke="#000000"
   stroke-miterlimit="10"
   cx="212.47037"
   cy="94.621597"
   rx="6.671"
   ry="8.5349998"
   id="ellipse808" />
<ellipse
   fill="#ffffff"
   stroke="#000000"
   stroke-miterlimit="10"
   cx="235.47037"
   cy="94.621597"
   rx="6.671"
   ry="8.5349998"
   id="ellipse810" />
<ellipse
   fill="#1a171b"
   cx="212.90738"
   cy="97.583588"
   rx="2.6919999"
   ry="4.2059999"
   id="ellipse812" />
<ellipse
   fill="#1a171b"
   cx="234.90836"
   cy="97.583588"
   rx="2.6919999"
   ry="4.2059999"
   id="ellipse814" />
<ellipse
   fill="#d8b78b"
   stroke="#000000"
   stroke-miterlimit="10"
   cx="223.91434"
   cy="116.9106"
   rx="29.221001"
   ry="17.533001"
   id="ellipse816" />
<path
   d="m 196.31337,105.14459 c -0.004,0 -0.471,0.108 -1.129,-0.295 -1.024,-0.627 -2.443,-2.413 -3.398,-7.395998 -0.561,-2.08 -0.852,-3.765 -0.955,-5.129 -0.021,-0.272 -0.033,-0.532 -0.04,-0.78 -0.062,-2.478 0.569,-3.731 1.263,-4.364 1.105,-1.009 2.723,-0.776 3.473,-0.593 0.25,0.062 0.404,0.117 0.41,0.12 l 0.351,-0.938 c -0.121,-0.045 -2.972,-1.086 -4.901,0.666 -1.682,1.526 -2.035,4.63 -1.064,9.212 0.138,0.651 0.303,1.334 0.494,2.046 0.814,4.249998 2.109,6.944998 3.847,8.008998 0.606,0.372 1.134,0.455 1.485,0.455 0.248,0 0.409,-0.042 0.445,-0.053 z"
   id="path818" />
<path
   d="m 256.35237,86.435592 c -1.928,-1.752 -4.779,-0.711 -4.9,-0.666 l 0.35,0.938 c 0.023,-0.01 2.412,-0.871 3.883,0.473 0.07,0.063 0.139,0.133 0.207,0.209 0.943,1.067 1.639,3.473 0.361,8.885 -0.09,0.379 -0.189,0.771 -0.299,1.18 v 0 c -0.004,0.013 -0.006,0.023 -0.01,0.036 -0.934,4.881998 -2.33,6.679998 -3.338,7.327998 -0.684,0.44 -1.172,0.329 -1.182,0.327 l -0.279,0.96 c 0.037,0.011 0.197,0.053 0.447,0.053 0.35,0 0.879,-0.084 1.484,-0.455 1.74,-1.065 3.035,-3.766 3.842,-7.988998 1.543,-5.742 1.354,-9.536 -0.566,-11.279 z"
   id="path820" />
<path
   d="m 205.43437,86.019592 c 0.026,0.562 0.535,-0.449 0.884,-0.771 0.592,-0.545 1.415,-0.987 2.243,-1.381 2.09,-0.992 4.617,-1.368 6.983,-1.417 0.487,-0.011 0.591,-3.057 -0.484,-3.033 -5.229,0.107 -10.972,2.331 -10.802,5.964 0.023,0.511 0.047,1.463 0.678,1.805 0.472,0.255 0.502,-1.102 0.498,-1.167 z"
   id="path822" />
<path
   d="m 242.71737,86.019592 c -0.026,0.562 -0.535,-0.449 -0.884,-0.771 -0.592,-0.545 -1.415,-0.987 -2.243,-1.381 -2.09,-0.992 -4.617,-1.368 -6.983,-1.417 -0.487,-0.011 -0.591,-3.057 0.484,-3.033 5.229,0.107 10.972,2.331 10.802,5.964 -0.023,0.511 -0.047,1.463 -0.678,1.805 -0.471,0.255 -0.502,-1.102 -0.498,-1.167 z"
   id="path824" />
<line
   fill="none"
   stroke="#000000"
   stroke-miterlimit="10"
   x1="194.70636"
   y1="116.5056"
   x2="253.13535"
   y2="116.5056"
   id="line826" />
<ellipse
   fill="#009ee0"
   fill-opacity="0.21"
   stroke="#000000"
   stroke-miterlimit="10"
   cx="212.58237"
   cy="93.975586"
   rx="9.7110004"
   ry="9.1809998"
   id="ellipse828" />
<line
   fill="none"
   stroke="#000000"
   stroke-linecap="round"
   stroke-miterlimit="10"
   x1="203.06339"
   y1="92.156586"
   x2="195.40237"
   y2="85.264587"
   id="line830" />
<ellipse
   fill="#009ee0"
   fill-opacity="0.21"
   stroke="#000000"
   stroke-miterlimit="10"
   cx="235.1124"
   cy="93.975586"
   rx="9.7110004"
   ry="9.1809998"
   id="ellipse832" />
<line
   fill="none"
   stroke="#000000"
   stroke-linecap="round"
   stroke-miterlimit="10"
   x1="244.63138"
   y1="92.156586"
   x2="252.29239"
   y2="85.264587"
   id="line834" />
<path
   fill="none"
   stroke="#000000"
   stroke-width="1.0575"
   stroke-linecap="round"
   stroke-miterlimit="10"
   d="m 222.70837,93.975592 c 0,0 1.352,-0.812 2.363,0"
   id="path836" />




















<g
   id="g1385"
   transform="translate(-544.43767,-57.714438)"><path
     fill="#d8b78b"
     d="m 656.528,219.108 c 0.191,1.381 0.465,6.063 2.051,6.826 5.137,2.47 6.938,-9.131 7.508,-11.925 0.568,-2.78 -0.219,-9.322 -4.438,-7.749 -0.139,0.051 -0.238,0.115 -0.311,0.186 -1.84,-0.794 -3.953,-0.59 -4.625,1.661 -0.995,3.335 -0.655,7.626 -0.185,11.001 z"
     id="path838" /><path
     fill="#d8b78b"
     d="m 608.605,208.107 c -0.671,-2.251 -2.785,-2.455 -4.626,-1.661 -0.07,-0.07 -0.17,-0.135 -0.309,-0.186 -4.219,-1.573 -5.007,4.969 -4.439,7.749 0.57,2.794 2.373,14.395 7.51,11.925 1.586,-0.763 1.858,-5.445 2.051,-6.826 0.469,-3.375 0.809,-7.666 -0.187,-11.001 z"
     id="path840" /><path
     fill="#7f512e"
     stroke="#1a171b"
     stroke-miterlimit="10"
     d="m 614.755,238.811 c -0.509,-0.078 -1.012,-0.177 -1.51,-0.292 -0.091,0.018 -0.187,0.031 -0.278,0.049 2.406,1.322 5.22,1.862 8.318,2.068 10e-4,-0.017 0.009,-0.032 0.012,-0.049 -1.818,-0.205 -4.32,-1.026 -6.542,-1.776 z"
     id="path842" /><path
     fill="#7f512e"
     stroke="#000000"
     stroke-miterlimit="10"
     d="m 632.731,185.353 c -15.746,0 -28.512,11.222 -28.512,27.66 0,12.541 2.133,19.448 5.727,23.235 0.03,0.003 0.06,0 0.092,0.009 2.961,0.808 6.04,0.371 9.013,1.208 1.43,0.403 3.277,0.726 4.401,1.788 0.046,0.012 0.087,0.034 0.128,0.058 0.064,-0.024 0.125,-0.055 0.191,-0.075 0.617,-0.191 0.88,0.774 0.266,0.964 -0.157,0.049 -0.309,0.113 -0.459,0.179 -0.112,0.184 -0.302,0.258 -0.488,0.232 -0.07,0.035 -0.142,0.068 -0.212,0.104 3.071,0.101 6.388,-0.042 9.854,-0.042 15.748,0 28.514,3.036 28.514,-27.66 -10e-4,-15.277 -12.767,-27.66 -28.515,-27.66 z"
     id="path844" /><path
     fill="#d8b78b"
     stroke="#000000"
     stroke-width="1.2015"
     stroke-miterlimit="10"
     d="m 632.729,195.979 c -26.684,-5.59 -23.48,12.362 -23.48,26.561 0,5.256 1.45,10.141 3.933,14.213 1.961,0.159 3.938,0.168 5.869,0.712 1.43,0.403 3.277,0.726 4.401,1.788 0.046,0.012 0.087,0.034 0.128,0.058 0.064,-0.024 0.125,-0.055 0.191,-0.075 0.617,-0.191 0.88,0.774 0.266,0.964 -0.157,0.049 -0.309,0.113 -0.459,0.179 -0.112,0.184 -0.302,0.258 -0.488,0.232 -0.389,0.198 -0.775,0.405 -1.193,0.542 -0.404,0.133 -0.648,-0.238 -0.6,-0.565 -1.817,-0.205 -4.32,-1.026 -6.542,-1.776 -0.07,-0.011 -0.139,-0.028 -0.209,-0.04 4.324,5.782 10.908,9.478 18.286,9.478 13.022,0 23.581,-11.51 23.581,-25.708 0,-14.198 -0.125,-32.152 -23.684,-26.563 z"
     id="path846" /><ellipse
     fill="#ffffff"
     stroke="#000000"
     stroke-miterlimit="10"
     cx="621.289"
     cy="214.88"
     rx="6.671"
     ry="8.5349998"
     id="ellipse848" /><ellipse
     fill="#ffffff"
     stroke="#000000"
     stroke-miterlimit="10"
     cx="644.289"
     cy="214.88"
     rx="6.671"
     ry="8.5349998"
     id="ellipse850" /><ellipse
     cx="621.72601"
     cy="217.842"
     rx="2.6919999"
     ry="4.2059999"
     id="ellipse852" /><ellipse
     cx="643.72699"
     cy="217.842"
     rx="2.6919999"
     ry="4.2059999"
     id="ellipse854" /><ellipse
     fill="#d8b78b"
     stroke="#000000"
     stroke-miterlimit="10"
     cx="632.73297"
     cy="237.16901"
     rx="29.221001"
     ry="17.533001"
     id="ellipse856" /><path
     d="m 605.132,225.403 c -0.004,0 -0.471,0.108 -1.129,-0.295 -1.024,-0.627 -2.443,-2.413 -3.398,-7.396 -0.561,-2.08 -0.852,-3.765 -0.955,-5.129 -0.021,-0.272 -0.033,-0.532 -0.04,-0.78 -0.062,-2.478 0.569,-3.731 1.263,-4.364 1.105,-1.009 2.723,-0.776 3.473,-0.593 0.25,0.062 0.404,0.117 0.41,0.12 l 0.351,-0.938 c -0.121,-0.045 -2.972,-1.086 -4.901,0.666 -1.682,1.526 -2.035,4.63 -1.064,9.212 0.138,0.651 0.303,1.334 0.494,2.046 0.814,4.25 2.109,6.945 3.847,8.009 0.606,0.372 1.134,0.455 1.485,0.455 0.248,0 0.409,-0.042 0.445,-0.053 z"
     id="path858" /><path
     d="m 665.171,206.694 c -1.928,-1.752 -4.779,-0.711 -4.9,-0.666 l 0.35,0.938 c 0.023,-0.01 2.412,-0.871 3.883,0.473 0.07,0.063 0.139,0.133 0.207,0.209 0.943,1.067 1.639,3.473 0.361,8.885 -0.09,0.379 -0.189,0.771 -0.299,1.18 v 0 c -0.004,0.013 -0.006,0.023 -0.01,0.036 -0.934,4.882 -2.33,6.68 -3.338,7.328 -0.684,0.44 -1.172,0.329 -1.182,0.327 l -0.279,0.96 c 0.037,0.011 0.197,0.053 0.447,0.053 0.35,0 0.879,-0.084 1.484,-0.455 1.74,-1.065 3.035,-3.766 3.842,-7.989 1.543,-5.742 1.354,-9.536 -0.566,-11.279 z"
     id="path860" /><path
     d="m 614.253,206.278 c 0.026,0.562 0.535,-0.449 0.884,-0.771 0.592,-0.545 1.415,-0.987 2.243,-1.381 2.09,-0.992 4.617,-1.368 6.983,-1.417 0.487,-0.011 0.591,-3.057 -0.484,-3.033 -5.229,0.107 -10.972,2.331 -10.802,5.964 0.023,0.511 0.047,1.463 0.678,1.805 0.472,0.255 0.502,-1.102 0.498,-1.167 z"
     id="path862" /><path
     d="m 650.237,205.128 c 0.208,0.522 -0.672,-0.189 -1.122,-0.339 -0.764,-0.253 -1.696,-0.316 -2.613,-0.335 -2.313,-0.043 -4.771,0.656 -6.947,1.586 -0.448,0.191 -1.797,-2.542 -0.808,-2.964 4.809,-2.056 10.958,-2.395 12.3,0.985 0.188,0.476 0.559,1.353 0.125,1.924 -0.324,0.428 -0.911,-0.797 -0.935,-0.857 z"
     id="path864" /><path
     fill="#ffffff"
     d="m 651.915,243.479 c 0,0 -8.035,-11.161 -27.478,-2.837 l -0.482,-0.056 c 9.436,3.784 18.637,8.904 27.96,2.893 z"
     id="path866" /><path
     d="m 652.29,243.209 c -0.083,-0.115 -8.471,-11.359 -28.021,-2.997 -0.049,-0.02 -1.281,0.448 -1.332,0.474 1.358,0.529 2.711,1.088 4.054,1.649 5.721,2.394 11.576,4.845 17.466,4.268 2.566,-0.252 5.139,-1.079 7.709,-2.735 l 0.408,-0.264 z m -24.943,-1.727 c -0.62,-0.259 -1.24,-0.519 -1.864,-0.775 16.184,-6.557 24.111,0.846 25.738,2.661 -7.904,4.797 -15.667,1.549 -23.874,-1.886 z"
     id="path868" /><line
     fill="none"
     stroke="#000000"
     stroke-width="0.9238"
     stroke-linecap="round"
     stroke-miterlimit="10"
     x1="624.43799"
     y1="240.642"
     x2="651.91498"
     y2="243.479"
     id="line870" /><line
     fill="none"
     stroke="#000000"
     stroke-width="0.9238"
     stroke-linecap="round"
     stroke-miterlimit="10"
     x1="630.948"
     y1="238.435"
     x2="630.72803"
     y2="243.37199"
     id="line872" /><line
     fill="none"
     stroke="#000000"
     stroke-width="0.9238"
     stroke-linecap="round"
     stroke-miterlimit="10"
     x1="635.651"
     y1="237.651"
     x2="635.422"
     y2="245.095"
     id="line874" /><line
     fill="none"
     stroke="#000000"
     stroke-width="0.9238"
     stroke-linecap="round"
     stroke-miterlimit="10"
     x1="640.60199"
     y1="237.72301"
     x2="640.40997"
     y2="245.879"
     id="line876" /><line
     fill="#ffffff"
     stroke="#000000"
     stroke-miterlimit="10"
     x1="646.12799"
     y1="239.405"
     x2="645.84998"
     y2="245.77"
     id="line878" /></g>




















































<g
   id="g1404"
   transform="translate(9.230256,-220.73889)"><path
     fill="#d8b78b"
     d="m 194.467,383.58 c 0.191,1.381 0.465,6.064 2.051,6.826 5.137,2.471 6.938,-9.131 7.508,-11.924 0.568,-2.781 -0.219,-9.322 -4.438,-7.75 -0.139,0.051 -0.238,0.115 -0.311,0.186 -1.84,-0.793 -3.953,-0.59 -4.625,1.66 -0.996,3.336 -0.656,7.627 -0.185,11.002 z"
     id="path984" /><path
     fill="#d8b78b"
     d="m 146.544,372.578 c -0.671,-2.25 -2.785,-2.453 -4.626,-1.66 -0.07,-0.07 -0.17,-0.135 -0.309,-0.186 -4.219,-1.572 -5.007,4.969 -4.439,7.75 0.57,2.793 2.373,14.395 7.51,11.924 1.586,-0.762 1.858,-5.445 2.051,-6.826 0.468,-3.375 0.808,-7.666 -0.187,-11.002 z"
     id="path986" /><path
     fill="#7f512e"
     stroke="#000000"
     stroke-miterlimit="10"
     d="m 199.184,377.484 c 0,-15.275 -12.766,-27.66 -28.514,-27.66 -15.746,0 -28.512,11.223 -28.512,27.66 0,30.697 12.766,27.66 28.512,27.66 15.748,10e-4 28.514,3.038 28.514,-27.66 z"
     id="path988" /><path
     fill="#d8b78b"
     stroke="#000000"
     stroke-width="1.2015"
     stroke-miterlimit="10"
     d="m 147.188,387.012 c 0,14.199 10.559,25.709 23.583,25.709 13.022,0 23.581,-11.51 23.581,-25.709 0,-14.199 -0.125,-32.15 -23.684,-26.561 -26.684,-5.59 -23.48,12.362 -23.48,26.561 z"
     id="path990" /><ellipse
     fill="#ffffff"
     stroke="#000000"
     stroke-miterlimit="10"
     cx="159.22701"
     cy="379.35199"
     rx="6.671"
     ry="8.5349998"
     id="ellipse992" /><ellipse
     fill="#ffffff"
     stroke="#000000"
     stroke-miterlimit="10"
     cx="182.228"
     cy="379.35199"
     rx="6.671"
     ry="8.5349998"
     id="ellipse994" /><ellipse
     cx="159.66499"
     cy="382.31299"
     rx="2.6919999"
     ry="4.2069998"
     id="ellipse996" /><ellipse
     cx="181.66499"
     cy="382.31299"
     rx="2.6919999"
     ry="4.2069998"
     id="ellipse998" /><ellipse
     fill="#d8b78b"
     stroke="#000000"
     stroke-miterlimit="10"
     cx="170.67101"
     cy="401.64099"
     rx="29.221001"
     ry="17.533001"
     id="ellipse1000" /><path
     d="m 143.07,389.875 c -0.004,0 -0.471,0.107 -1.129,-0.295 -1.024,-0.627 -2.443,-2.412 -3.398,-7.396 -0.561,-2.08 -0.852,-3.766 -0.955,-5.129 -0.021,-0.273 -0.033,-0.533 -0.04,-0.779 -0.062,-2.479 0.569,-3.732 1.263,-4.365 1.105,-1.008 2.723,-0.777 3.473,-0.592 0.25,0.061 0.404,0.117 0.41,0.119 l 0.351,-0.938 c -0.121,-0.045 -2.972,-1.086 -4.901,0.666 -1.682,1.527 -2.035,4.629 -1.064,9.211 0.138,0.652 0.303,1.334 0.494,2.047 0.814,4.25 2.109,6.945 3.847,8.01 0.606,0.371 1.134,0.453 1.485,0.453 0.248,0 0.409,-0.041 0.445,-0.053 z"
     id="path1002" /><path
     d="m 203.109,371.166 c -1.928,-1.752 -4.779,-0.711 -4.9,-0.666 l 0.35,0.938 c 0.023,-0.01 2.412,-0.871 3.883,0.473 0.07,0.063 0.139,0.133 0.207,0.209 0.943,1.068 1.639,3.473 0.361,8.885 -0.09,0.379 -0.189,0.771 -0.299,1.18 v 0 c -0.004,0.014 -0.006,0.023 -0.01,0.037 -0.934,4.881 -2.33,6.678 -3.338,7.326 -0.684,0.441 -1.172,0.33 -1.182,0.328 l -0.279,0.959 c 0.037,0.012 0.197,0.053 0.447,0.053 0.35,0 0.879,-0.082 1.484,-0.453 1.74,-1.066 3.035,-3.766 3.842,-7.99 1.544,-5.742 1.354,-9.537 -0.566,-11.279 z"
     id="path1004" /><path
     d="m 152.191,370.75 c 0.026,0.563 0.535,-0.449 0.884,-0.771 0.592,-0.545 1.415,-0.988 2.243,-1.381 2.09,-0.992 4.617,-1.367 6.983,-1.418 0.487,-0.01 0.591,-3.055 -0.484,-3.033 -5.229,0.109 -10.972,2.332 -10.802,5.965 0.023,0.512 0.047,1.463 0.678,1.805 0.472,0.255 0.502,-1.103 0.498,-1.167 z"
     id="path1006" /><path
     d="m 189.475,370.75 c -0.026,0.563 -0.535,-0.449 -0.884,-0.771 -0.592,-0.545 -1.415,-0.988 -2.243,-1.381 -2.09,-0.992 -4.617,-1.367 -6.983,-1.418 -0.487,-0.01 -0.591,-3.055 0.484,-3.033 5.229,0.109 10.972,2.332 10.802,5.965 -0.023,0.512 -0.047,1.463 -0.678,1.805 -0.472,0.255 -0.502,-1.103 -0.498,-1.167 z"
     id="path1008" /><path
     fill="#ffffff"
     d="m 146.401,400.287 c 1.529,0.936 3.057,1.752 4.579,2.463 v -2.703 c -1.52,-0.209 -3.046,-0.447 -4.579,-0.723 z m 24.725,6.5 c 2.07,-0.08 4.07,-0.303 5.987,-0.619 v -5.057 c -1.915,0.092 -3.916,0.154 -5.987,0.174 z m -19.146,-6.601 v 3.018 c 6.292,2.754 12.459,3.713 18.146,3.611 v -5.523 c -0.176,0 -0.349,0.002 -0.525,0.002 -5.514,-10e-4 -11.486,-0.31 -17.621,-1.108 z m -6.579,-0.532 v -0.506 c -0.365,-0.07 -0.731,-0.152 -1.098,-0.225 0.367,0.251 0.732,0.495 1.098,0.731 z m 45.42,2.319 c 1.395,-0.627 2.634,-1.248 3.694,-1.818 v -0.838 c -1.072,0.174 -2.309,0.359 -3.694,0.547 z m 4.695,-2.823 v 0.453 c 0.409,-0.23 0.783,-0.449 1.12,-0.65 -0.343,0.063 -0.715,0.127 -1.12,0.197 z m -10.659,5.123 c 1.797,-0.582 3.46,-1.219 4.964,-1.861 v -2.418 c -1.509,0.193 -3.17,0.385 -4.964,0.557 z m -6.744,1.719 c 2.023,-0.377 3.946,-0.861 5.744,-1.406 v -3.941 c -1.798,0.162 -3.722,0.305 -5.744,0.414 z"
     id="path1010" /><path
     fill="#cc0033"
     d="m 153.659,404.674 c 2.438,0.809 4.855,1.52 7.348,2.137 2.604,0.646 5.24,0.533 7.893,0.781 0.027,0.004 0.053,0.014 0.079,0.02 0.039,-0.666 0.06,-1.389 0.06,-2.176 0,-10.439 -3.484,-9.916 -7.783,-9.916 -4.186,0 -7.597,-0.322 -7.774,9.127 0.054,-0.002 0.114,0.005 0.177,0.027 z"
     id="path1012" /><path
     d="m 168.51,406.85 c 0.333,0.012 0.665,0.031 0.997,0.064 0.018,-0.469 0.031,-0.953 0.031,-1.479 0,-9.672 -2.955,-10.42 -7.13,-10.42 l -1.945,0.004 c -4.128,0 -7.092,0.678 -7.442,8.762 0.312,0.143 0.646,0.271 0.976,0.35 0.267,-8.105 3.01,-8.111 6.467,-8.111 h 0.792 l 1.153,-0.004 c 3.289,0 6.13,0 6.13,9.42 -10e-4,0.5 -0.014,0.962 -0.029,1.414 z"
     id="path1014" /><path
     d="m 199.099,397.961 -0.11,-0.486 c -0.036,0.008 -0.521,0.115 -1.4,0.283 -0.004,0.002 -0.01,0.002 -0.015,0.004 -0.14,0.027 -0.288,0.055 -0.447,0.084 -0.039,0.008 -0.084,0.016 -0.125,0.023 -0.13,0.025 -0.262,0.049 -0.404,0.074 -0.065,0.012 -0.138,0.025 -0.206,0.037 -0.123,0.021 -0.245,0.045 -0.376,0.068 -0.104,0.018 -0.218,0.037 -0.328,0.057 -0.104,0.018 -0.206,0.035 -0.315,0.055 -0.135,0.021 -0.277,0.045 -0.418,0.068 -0.096,0.018 -0.188,0.033 -0.287,0.049 -0.161,0.025 -0.331,0.053 -0.501,0.08 -0.086,0.014 -0.169,0.027 -0.257,0.041 -0.189,0.031 -0.389,0.061 -0.588,0.092 -0.076,0.012 -0.148,0.023 -0.226,0.035 -0.202,0.031 -0.412,0.063 -0.623,0.094 -0.085,0.012 -0.167,0.023 -0.253,0.037 -0.217,0.031 -0.441,0.063 -0.667,0.094 -0.086,0.014 -0.169,0.025 -0.256,0.037 -0.239,0.033 -0.486,0.066 -0.734,0.1 -0.078,0.01 -0.154,0.021 -0.232,0.031 -0.262,0.035 -0.53,0.068 -0.801,0.104 -0.074,0.01 -0.146,0.02 -0.221,0.027 -0.276,0.035 -0.561,0.07 -0.848,0.105 -0.074,0.008 -0.147,0.018 -0.222,0.025 -0.287,0.035 -0.58,0.068 -0.876,0.102 -0.082,0.01 -0.162,0.018 -0.244,0.027 -0.298,0.033 -0.602,0.066 -0.907,0.098 -0.085,0.01 -0.169,0.018 -0.254,0.027 -0.312,0.033 -0.628,0.064 -0.947,0.096 -0.086,0.008 -0.17,0.016 -0.257,0.025 -0.322,0.029 -0.651,0.061 -0.982,0.09 -0.088,0.008 -0.174,0.016 -0.262,0.023 -0.34,0.031 -0.687,0.061 -1.035,0.088 -0.082,0.008 -0.162,0.014 -0.244,0.021 -0.343,0.027 -0.691,0.053 -1.041,0.08 -0.1,0.006 -0.198,0.014 -0.299,0.021 -0.347,0.025 -0.698,0.049 -1.053,0.072 -0.102,0.006 -0.203,0.014 -0.306,0.02 -0.352,0.021 -0.708,0.043 -1.066,0.064 -0.113,0.006 -0.227,0.012 -0.341,0.02 -0.356,0.02 -0.717,0.037 -1.08,0.055 -0.116,0.006 -0.232,0.012 -0.35,0.016 -0.362,0.018 -0.729,0.033 -1.099,0.047 -0.123,0.004 -0.245,0.01 -0.369,0.014 -0.367,0.014 -0.737,0.025 -1.11,0.037 -0.129,0.004 -0.259,0.008 -0.389,0.012 -0.367,0.01 -0.737,0.018 -1.11,0.025 -0.141,0.002 -0.282,0.004 -0.424,0.008 -0.364,0.006 -0.732,0.01 -1.102,0.014 -0.153,0.002 -0.306,0.004 -0.46,0.004 -0.364,0.004 -0.731,0.004 -1.101,0.004 -0.305,0 -0.607,0 -0.915,-0.002 0.064,0.313 0.123,0.641 0.174,0.994 0.267,0.002 0.545,0.012 0.811,0.012 0.083,0 0.166,0 0.248,0 v 0 c 0.092,-0.002 0.185,-0.002 0.277,-0.002 v 5.523 c -5.687,0.102 -11.854,-0.857 -18.146,-3.611 v -3.018 c 0.527,0.068 1.046,0.115 1.571,0.176 v 0 c 0.111,0.012 0.223,0.025 0.334,0.037 0.07,-0.344 0.149,-0.66 0.236,-0.957 -0.425,-0.047 -0.854,-0.107 -1.279,-0.16 -0.589,-0.072 -1.177,-0.141 -1.768,-0.223 -0.407,-0.057 -0.817,-0.123 -1.226,-0.184 -0.571,-0.086 -1.142,-0.166 -1.715,-0.26 -0.525,-0.088 -1.055,-0.188 -1.582,-0.281 -0.458,-0.082 -0.915,-0.156 -1.374,-0.246 -0.989,-0.189 -1.98,-0.395 -2.973,-0.615 l -0.108,0.488 -0.301,0.4 c 9.431,7.1 18.975,9.465 27.509,9.465 16.936,0 29.896,-9.32 30.09,-9.463 z m -53.698,1.693 c -0.366,-0.236 -0.731,-0.48 -1.098,-0.73 0.366,0.072 0.732,0.154 1.098,0.225 z m 5.579,3.096 c -1.522,-0.711 -3.05,-1.527 -4.579,-2.463 v -0.963 c 1.533,0.275 3.06,0.514 4.579,0.723 z m 26.133,3.418 c -1.917,0.316 -3.917,0.539 -5.987,0.619 v -5.502 c 2.071,-0.02 4.072,-0.082 5.987,-0.174 z m 6.744,-1.582 c -1.798,0.545 -3.721,1.029 -5.744,1.406 v -4.934 c 2.022,-0.109 3.946,-0.252 5.744,-0.414 z m 5.964,-2.174 c -1.504,0.643 -3.167,1.279 -4.964,1.861 v -3.723 c 1.794,-0.172 3.455,-0.363 4.964,-0.557 z m 4.695,-2.258 c -1.061,0.57 -2.3,1.191 -3.694,1.818 v -2.109 c 1.386,-0.188 2.622,-0.373 3.694,-0.547 z m 1,-0.55 v -0.453 c 0.405,-0.07 0.777,-0.135 1.12,-0.197 -0.337,0.2 -0.711,0.419 -1.12,0.65 z"
     id="path1016" /></g>






















































































































































</svg>
